<svg xmlns="http://www.w3.org/2000/svg" xmlns:xlink="http://www.w3.org/1999/xlink" xmlns:lucid="lucid" width="1457" height="941.2"><g transform="translate(-163.5 23)" lucid:page-tab-id="0_0"><path d="M0-500h2000v1500H0z" fill="#fafafa"/><path d="M158-28.5h6v6h-6z" fill="url(#a)"/><path d="M164-28.5h1456v952.2H164z" fill="url(#b)"/><path d="M1620-28.5h6v6h-6z" fill="url(#c)"/><path d="M158-22.5h1468v940.2H158z" fill="url(#d)"/><path d="M1620 917.7h6v6h-6z" fill="url(#e)"/><path d="M164-28.5h1456v952.2H164z" fill="url(#f)"/><path d="M158 917.7h6v6h-6z" fill="url(#g)"/><path d="M158-22.5h1468v940.2H158z" fill="url(#h)"/><path d="M164-22.5h1456v940.2H164z" stroke="#6f7681" fill="#fff"/><path d="M169.78-36.2c1.55.23 2.7 1.03 2.7 2.72 0 3.87-4.7 3.02-8.48 3.1v-11c3.38.12 7.87-.76 7.87 2.66 0 1.46-.85 2.22-2.1 2.53zm-4.3-.48c2.2-.04 4.88.4 4.88-1.86 0-2.1-2.8-1.6-4.9-1.65v3.52zm0 5.1c2.43-.08 5.5.64 5.5-2 0-2.48-3.1-1.85-5.5-1.94v3.95m11.6 1.38c-3.97.2-2.4-5.14-2.72-8.6h1.42v5.32c0 1.38.3 2.22 1.73 2.18 3.2-.1 2-4.5 2.23-7.5h1.38l.06 8.43h-1.34c-.04-.44.05-1.1-.1-1.46-.48.97-1.23 1.6-2.65 1.64m6.22-.17v-11.6h1.4v11.6h-1.4m8.8 0l-2.86-3.86-1.02.84v3.03h-1.42v-11.6h1.42v7.25l3.7-4.1h1.64l-3.43 3.65 3.65 4.8h-1.7m7.43-11.02c3.88.06 8.5-.66 8.5 3.34 0 3.47-3.42 3.56-7.02 3.38v4.3h-1.47v-11zm1.48 5.57c2.53 0 5.5.5 5.5-2.23 0-2.62-3-2.08-5.5-2.13v4.37m14.13 3.86c-.66.94-1.37 1.83-3 1.78-1.6-.03-2.6-.92-2.6-2.52-.03-2.85 2.8-2.8 5.57-2.8.13-1.56-.4-2.4-1.83-2.4-1.06.04-1.82.3-1.86 1.38l-1.47-.14c.23-1.64 1.48-2.3 3.4-2.3 2 0 3.2.88 3.2 2.84v3.64c-.06.9.3 1.42 1.23 1.2v.9c-1.37.4-2.7-.1-2.62-1.57zm-4.12-.75c0 .9.53 1.46 1.42 1.46 1.82-.13 2.8-1.28 2.67-3.28-1.9.08-4.1-.23-4.1 1.82m14.72-6.1l-3.83 9.83c-.63 1.26-1.65 2.28-3.6 1.88v-1.07c1.73.28 2.35-.88 2.84-2.2l-3.32-8.4h1.5l2.54 6.92 2.4-6.93h1.47m9.37.92c-2.98.14-1.7 4.67-1.96 7.5h-1.37v-5.36c0-1.3-.22-2.23-1.55-2.14-2.94.18-1.7 4.62-1.96 7.5h-1.38l-.04-8.43h1.33c.05.43-.04 1.06.1 1.4.44-1.94 4.4-2.2 4.75 0 .5-.92 1.2-1.54 2.58-1.6 3.77-.08 2.08 5.3 2.44 8.63h-1.38v-5.37c0-1.3-.22-2.18-1.55-2.14m8.4-1.1c2.8 0 3.82 1.86 3.73 4.7h-6c0 1.78.62 2.98 2.36 3.02 1.15.05 1.9-.53 2.17-1.28l1.25.35c-.5 1.26-1.65 2-3.42 2-2.58 0-3.92-1.63-3.87-4.43.03-2.7 1.14-4.36 3.77-4.36zm2.3 3.6c.27-2.68-3.37-3.43-4.3-1.25-.14.3-.27.75-.27 1.24h4.58m7.33-3.6c3.97-.17 2.37 5.17 2.68 8.63h-1.42v-5.37c0-1.38-.36-2.18-1.74-2.14-3.2.1-1.95 4.54-2.18 7.5h-1.42l-.04-8.43h1.33c.06.43-.03 1.06.1 1.4.5-.97 1.3-1.54 2.7-1.6m6.32 6.54c-.1 1.07.8 1.3 1.7.98v1.07c-1.48.43-3.12.2-3.12-1.74v-5.65h-.98v-1h1.07l.4-1.92h.92v1.9h1.56v1.03h-1.56v5.34m7.6-8.93c3.87.06 8.5-.66 8.5 3.34 0 3.47-3.43 3.56-7.03 3.38v4.3H267v-11zm1.47 5.57c2.52 0 5.5.5 5.5-2.23 0-2.62-3.02-2.08-5.5-2.13v4.37m12.92-1.78c-3.46-.72-2.35 4.03-2.53 7.23h-1.43l-.05-8.44h1.34c.04.52-.05 1.28.08 1.72.27-1.2 1.03-2.18 2.58-1.82v1.3m4.67-1.4c2.74-.03 3.77 1.66 3.77 4.4.04 2.8-1.2 4.4-3.83 4.4-2.62 0-3.68-1.72-3.73-4.4 0-2.92 1.26-4.4 3.8-4.4zm-.06 7.74c1.96.05 2.36-1.37 2.36-3.33 0-1.9-.36-3.32-2.27-3.32-1.9 0-2.35 1.42-2.35 3.33 0 1.92.44 3.3 2.26 3.34m8.76-6.62c-1.78 0-2.13 1.47-2.13 3.25 0 1.77.4 3.33 2.13 3.33 1.07 0 1.82-.62 1.9-1.7l1.43.1c-.26 1.64-1.37 2.7-3.3 2.7-2.6 0-3.36-1.8-3.63-4.4-.44-4.12 4.5-5.8 6.53-2.83.18.3.23.62.3.97l-1.4.14c-.2-.94-.72-1.56-1.83-1.56m8.18-1.1c2.8 0 3.82 1.86 3.73 4.7h-6c0 1.78.63 2.98 2.37 3.02 1.15.05 1.9-.53 2.17-1.28l1.25.35c-.5 1.26-1.66 2-3.43 2-2.58 0-3.9-1.63-3.87-4.43.04-2.7 1.16-4.36 3.78-4.36zm2.3 3.6c.28-2.68-3.37-3.43-4.3-1.25-.14.3-.27.75-.27 1.24h4.6m8.12-1.32c-.13-1.5-3.82-1.7-3.86 0 .66 2.35 5.1.53 5.28 4 .18 3.46-6.66 3.3-6.97.35l1.24-.22c.2 1.6 4.32 2 4.37 0-.45-2.48-5.03-.66-5.25-4-.18-2.52 3.65-2.8 5.42-1.86.54.32.94.85 1.07 1.56m6.72.18c-.13-1.5-3.82-1.7-3.86 0 .66 2.35 5.1.53 5.28 4 .18 3.46-6.66 3.3-6.97.35l1.24-.22c.2 1.6 4.32 2 4.37 0-.45-2.48-5.03-.66-5.25-4-.18-2.52 3.65-2.8 5.42-1.86.54.32.94.85 1.07 1.56" fill="#282c33"/><path d="M284 83.17a6 6 0 0 1 6-6h117a6 6 0 0 1 6 6v35.33a6 6 0 0 1-6 6H290a6 6 0 0 1-6-6z" stroke="#5e5e5e" stroke-width="3" fill="#fff"/><use xlink:href="#i" transform="matrix(1,0,0,1,286.3666666666667,79.53333333333335) translate(30.944444444444443 14.222222222222223)"/><use xlink:href="#j" transform="matrix(1,0,0,1,286.3666666666667,79.53333333333335) translate(27.48765432098765 35.55555555555556)"/><path d="M467 83.17a6 6 0 0 1 6-6h117a6 6 0 0 1 6 6v35.33a6 6 0 0 1-6 6H473a6 6 0 0 1-6-6z" stroke="#5e5e5e" stroke-width="3" fill="#fff"/><use xlink:href="#k" transform="matrix(1,0,0,1,469.3666666666667,79.53333333333335) translate(2.5246913580246826 24.97222222222222)"/><use xlink:href="#l" transform="matrix(1,0,0,1,469.3666666666667,79.53333333333335) translate(70.57407407407408 24.97222222222222)"/><path d="M671.5 83.17a6 6 0 0 1 6-6h117a6 6 0 0 1 6 6v35.33a6 6 0 0 1-6 6h-117a6 6 0 0 1-6-6z" stroke="#5e5e5e" stroke-width="3" fill="#fff"/><use xlink:href="#m" transform="matrix(1,0,0,1,673.8666666666667,79.53333333333333) translate(25.48765432098765 14.222222222222223)"/><use xlink:href="#n" transform="matrix(1,0,0,1,673.8666666666667,79.53333333333333) translate(36.376543209876544 35.55555555555556)"/><path d="M876 69.83a6 6 0 0 1 6-6h117a6 6 0 0 1 6 6v48.67a6 6 0 0 1-6 6H882a6 6 0 0 1-6-6z" stroke="#5e5e5e" stroke-width="3" fill="#fff"/><use xlink:href="#o" transform="matrix(1,0,0,1,879.0333333333333,66.86666666666667) translate(16.53086419753086 21.21527777777778)"/><use xlink:href="#p" transform="matrix(1,0,0,1,879.0333333333333,66.86666666666667) translate(28.845679012345677 47.88194444444444)"/><path d="M1040 75.17a6 6 0 0 1 6-6h117a6 6 0 0 1 6 6v43.33a6 6 0 0 1-6 6h-117a6 6 0 0 1-6-6z" stroke="#5e5e5e" stroke-width="3" fill="#fff"/><use xlink:href="#q" transform="matrix(1,0,0,1,1042.7666666666667,71.93333333333335) translate(10.864197530864189 17.34722222222222)"/><use xlink:href="#r" transform="matrix(1,0,0,1,1042.7666666666667,71.93333333333335) translate(66.17283950617283 17.34722222222222)"/><use xlink:href="#s" transform="matrix(1,0,0,1,1042.7666666666667,71.93333333333335) translate(43.30864197530864 38.68055555555556)"/><path d="M348.5 126.96V450.8" stroke="#5e5e5e" stroke-width="2" fill="none"/><path d="M349.5 127h-2v-1.04h2z" stroke="#5e5e5e" stroke-width=".05" fill="#5e5e5e"/><path d="M348.5 450.78v1.03" stroke="#5e5e5e" stroke-width="2" fill="none"/><path d="M525.42 452.08h-2V352.6h2zm0-110.15h-2V327.8h2zm0-24.8h-2V126.97h2z" stroke="#5e5e5e" stroke-width=".05" fill="#5e5e5e"/><path d="M525.42 127h-2v-1.03h2z" fill="#5e5e5e"/><path d="M525.44 127.02h-2.05v-1.08h2.04zm-2-1.03v.97h1.95V126zM525.42 453.08h-2v-1.02h2z" stroke="#5e5e5e" stroke-width=".05" fill="#5e5e5e"/><path d="M732.68 126.97v338.15" stroke="#5e5e5e" stroke-width="2" fill="none"/><path d="M733.68 127h-2v-1.03h2z" stroke="#5e5e5e" stroke-width=".05" fill="#5e5e5e"/><path d="M732.68 465.1v1.02" stroke="#5e5e5e" stroke-width="2" fill="none"/><path d="M941.93 460.83h-2V126.96h2z" stroke="#5e5e5e" stroke-width=".05" fill="#5e5e5e"/><path d="M941.93 127h-2v-1.04h2zM941.93 461.83h-2v-1.02h2z" stroke="#5e5e5e" stroke-width=".05" fill="#5e5e5e"/><path d="M1107.3 126.96l.02 332.4" stroke="#5e5e5e" stroke-width="2" fill="none"/><path d="M1108.3 127h-2v-1.04h2z" stroke="#5e5e5e" stroke-width=".05" fill="#5e5e5e"/><path d="M1107.32 459.34v1.03M525.42 170.75l188.2 1.08M525.45 170.75h-1.03" stroke="#5e5e5e" stroke-width="2" fill="none"/><path d="M728.88 171.92l-14.3 4.55.06-9.27z" stroke="#5e5e5e" stroke-width="2" fill="#5e5e5e"/><path d="M555.1 150.27a6 6 0 0 1 6-6h125.43a6 6 0 0 1 6 6v22.67a6 6 0 0 1-6 6H561.1a6 6 0 0 1-6-6z" fill="none"/><use xlink:href="#t" transform="matrix(1,0,0,1,567.0885297065048,156.26720813599297) translate(0 7.277777777777778)"/><use xlink:href="#u" transform="matrix(1,0,0,1,567.0885297065048,156.26720813599297) translate(37.50617283950618 7.277777777777778)"/><use xlink:href="#v" transform="matrix(1,0,0,1,567.0885297065048,156.26720813599297) translate(53.777777777777786 7.277777777777778)"/><use xlink:href="#w" transform="matrix(1,0,0,1,567.0885297065048,156.26720813599297) translate(63.65432098765433 7.277777777777778)"/><path d="M732.1 177.8a6 6 0 0 1 6-6h184.03a6 6 0 0 1 6 6v44a6 6 0 0 1-6 6H738.1a6 6 0 0 1-6-6z" fill="none"/><use xlink:href="#x" transform="matrix(1,0,0,1,744.0934152502382,183.79137535698885) translate(0 12.944444444444443)"/><use xlink:href="#y" transform="matrix(1,0,0,1,744.0934152502382,183.79137535698885) translate(34.56790123456791 12.944444444444443)"/><use xlink:href="#z" transform="matrix(1,0,0,1,744.0934152502382,183.79137535698885) translate(66.17283950617285 12.944444444444443)"/><use xlink:href="#A" transform="matrix(1,0,0,1,744.0934152502382,183.79137535698885) translate(78.98765432098767 12.944444444444443)"/><use xlink:href="#B" transform="matrix(1,0,0,1,744.0934152502382,183.79137535698885) translate(90.29629629629632 12.944444444444443)"/><use xlink:href="#C" transform="matrix(1,0,0,1,744.0934152502382,183.79137535698885) translate(113.45679012345681 12.944444444444443)"/><use xlink:href="#D" transform="matrix(1,0,0,1,744.0934152502382,183.79137535698885) translate(142.56790123456793 12.944444444444443)"/><use xlink:href="#E" transform="matrix(1,0,0,1,744.0934152502382,183.79137535698885) translate(0 23.61111111111111)"/><use xlink:href="#F" transform="matrix(1,0,0,1,744.0934152502382,183.79137535698885) translate(24.666666666666668 23.61111111111111)"/><path d="M937.83 200.8h-204.7v-2h204.7z" stroke="#5e5e5e" stroke-width=".05" fill="#5e5e5e"/><path d="M733.16 200.8h-1.03v-2h1.03z" fill="#5e5e5e"/><path d="M733.18 200.82h-1.07v-2.05h1.08zm-1.03-2v1.95h.98v-1.95z" stroke="#5e5e5e" stroke-width=".05" fill="#5e5e5e"/><path d="M953.1 199.8l-14.27 4.63v-9.27z" fill="#5e5e5e"/><path d="M956.33 199.8l-18.5 6V193.8zm-16.5 3.26l10.03-3.26-10.03-3.26zM731.7 227.1l-.04 2-32.42-.4v-2zm-173.84-2.2v2l-14.95-.2.03-2z" stroke="#5e5e5e" stroke-width=".05" fill="#5e5e5e"/><path d="M732.7 227.12l-.04 2h-1.02l.02-2z" stroke="#5e5e5e" stroke-width=".05" fill="#5e5e5e"/><path d="M541.86 230.32l-14.2-4.82 14.32-4.45z" fill="#5e5e5e"/><path d="M542.84 231.7l-18.42-6.24L543 219.7zm-11.95-6.15l9.98 3.38.08-6.5z" stroke="#5e5e5e" stroke-width=".05" fill="#5e5e5e"/><use xlink:href="#G" transform="matrix(1,0,0,1,557.8562343459473,221.45979826524209) translate(0 7.111111111111112)"/><use xlink:href="#H" transform="matrix(1,0,0,1,557.8562343459473,221.45979826524209) translate(50.27160493827161 7.111111111111112)"/><use xlink:href="#I" transform="matrix(1,0,0,1,557.8562343459473,221.45979826524209) translate(68.49382716049384 7.111111111111112)"/><use xlink:href="#J" transform="matrix(1,0,0,1,557.8562343459473,221.45979826524209) translate(112.83950617283952 7.111111111111112)"/><path d="M741.45 177.8a6 6 0 0 1 6-6h174.68a6 6 0 0 1 6 6v44a6 6 0 0 1-6 6H747.45a6 6 0 0 1-6-6z" fill-opacity="0"/><path d="M742.18 174.95l.42-.7.6-.7.62-.52m1.47-.82l.3-.1.9-.23h1.52m2 0h3.02m2 0h3m2.02 0h3m2.02 0h3m2.02 0l3-.02m2 0h3.02m2 0h3.02m2 0h3.02m2 0h3.02m2 0h3m2.02 0h3m2.02 0h3m2.02 0h3m2 0h3.02m2-.02h3.02m2 0h3.02m2 0h3.02m2 0h3m2.02 0h3m2.02 0h3m2.02 0h3m2 0h3.02m2 0h3.02m2 0l3.02-.02m2 0h3.02m2 0h3m2.02 0h3m2.02 0h3m2.02 0h3m2 0h3.02m2 0h3.02m2 0h3.02m2 0h3.02m2 0h3.02m2 0h1.5l.95.07.32.07m1.57.58l.68.42.72.6.52.62m.8 1.47l.13.3.22.92v1.5m0 2v3m.02 2v3m0 2v2.98m0 2l.02 3m0 2v3m0 2v3m0 1.98v3m.02 2v3m0 2v1.5l-.07.94-.07.32m-.58 1.6l-.42.67-.6.7-.62.53m-1.47.82l-.32.13-.9.23h-1.52m-2 0h-3.02m-2 0h-3m-2.02 0h-3m-2.02 0h-3m-2.02 0h-3m-2 0h-3.02m-2 0h-3.02m-2 0h-3.02m-2 .02h-3.02m-2 0h-3m-2.02 0h-3m-2.02 0h-3m-2.02 0h-3m-2 0h-3.02m-2 0h-3.02m-2 0h-3.02m-2 0h-3.02m-2 0l-3 .02m-2.02 0h-3m-2.02 0h-3m-2.02 0h-3m-2 0h-3.02m-2 0h-3.02m-2 0h-3.02m-2 0h-3.02m-2 0h-3m-2.02 0l-3 .02m-2.02 0h-3m-2.02 0h-3m-2 0h-3.02m-2 0H766m-2 0H761m-2 0h-3.02m-2 0h-3m-2.02 0h-1.5l-.95-.07-.3-.08m-1.6-.58l-.67-.4-.72-.63-.5-.6m-.83-1.48l-.12-.3-.22-.92v-1.5m0-2v-3m-.02-2v-3m0-1.98v-3m0-2v-3m0-2l-.02-3m0-2v-2.98m0-2v-3m-.02-2v-3m0-2v-1.5l.07-.93.07-.32" stroke="#5e5e5e" fill="none"/><path d="M732.1 166.4a6 6 0 0 1 6-6h69.26a6 6 0 0 1 6 6v20.02a6 6 0 0 1-6 6H738.1a6 6 0 0 1-6-6z" fill="none"/><use xlink:href="#K" transform="matrix(1,0,0,1,744.0934152502382,172.4098453909321) translate(0 5.833333333333334)"/><use xlink:href="#L" transform="matrix(1,0,0,1,744.0934152502382,172.4098453909321) translate(11.814814814814817 5.833333333333334)"/><use xlink:href="#M" transform="matrix(1,0,0,1,744.0934152502382,172.4098453909321) translate(20.2962962962963 5.833333333333334)"/><use xlink:href="#N" transform="matrix(1,0,0,1,744.0934152502382,172.4098453909321) translate(42.12962962962963 5.833333333333334)"/><use xlink:href="#O" transform="matrix(1,0,0,1,744.0934152502382,172.4098453909321) translate(49.14814814814815 5.833333333333334)"/><path d="M550.18 267.84h-24.26v-2h24.26zm164 0H670.4v-2h43.75z" stroke="#5e5e5e" stroke-width=".05" fill="#5e5e5e"/><path d="M525.94 267.84h-1.02v-2h1.02z" stroke="#5e5e5e" stroke-width=".05" fill="#5e5e5e"/><path d="M729.44 266.84l-14.27 4.63v-9.27z" fill="#5e5e5e"/><path d="M732.68 266.84l-18.5 6v-12.02zm-16.5 3.26l10.02-3.26-10.03-3.26z" stroke="#5e5e5e" stroke-width=".05" fill="#5e5e5e"/><use xlink:href="#P" transform="matrix(1,0,0,1,550.176210574256,261.5031856496785) translate(0 7.111111111111112)"/><use xlink:href="#Q" transform="matrix(1,0,0,1,550.176210574256,261.5031856496785) translate(32.51851851851852 7.111111111111112)"/><use xlink:href="#R" transform="matrix(1,0,0,1,550.176210574256,261.5031856496785) translate(50.79012345679013 7.111111111111112)"/><use xlink:href="#S" transform="matrix(1,0,0,1,550.176210574256,261.5031856496785) translate(69.01234567901236 7.111111111111112)"/><use xlink:href="#T" transform="matrix(1,0,0,1,550.176210574256,261.5031856496785) translate(83.28395061728396 7.111111111111112)"/><path d="M741 278.4a6 6 0 0 1 6-6h47.5a6 6 0 0 1 6 6v28a6 6 0 0 1-6 6H747a6 6 0 0 1-6-6z" stroke="#5e5e5e" stroke-width="3" fill-opacity="0"/><use xlink:href="#U" transform="matrix(1,0,0,1,742.990122525148,274.38695550754073) translate(1 14.333333333333334)"/><use xlink:href="#V" transform="matrix(1,0,0,1,742.990122525148,274.38695550754073) translate(19.5 14.333333333333334)"/><use xlink:href="#W" transform="matrix(1,0,0,1,742.990122525148,274.38695550754073) translate(46.888888888888886 14.333333333333334)"/><use xlink:href="#X" transform="matrix(1,0,0,1,742.990122525148,274.38695550754073) translate(2.4722222222222214 22.333333333333336)"/><use xlink:href="#Y" transform="matrix(1,0,0,1,742.990122525148,274.38695550754073) translate(28.009259259259256 22.333333333333336)"/><path d="M467 323.47H367v-2h100zm265.85 0H615.33v-2h117.52z" stroke="#5e5e5e" stroke-width=".05" fill="#5e5e5e"/><path d="M733.85 323.47h-1.03v-2h1.03z" stroke="#5e5e5e" stroke-width=".05" fill="#5e5e5e"/><path d="M366 327.1l-14.26-4.63 14.26-4.64z" fill="#5e5e5e"/><path d="M367 328.48l-18.5-6 18.5-6.03zm-12.03-6L365 325.7v-6.5z" stroke="#5e5e5e" stroke-width=".05" fill="#5e5e5e"/><use xlink:href="#Z" transform="matrix(1,0,0,1,467.01318005990277,317.13198415877935) translate(0 7.111111111111112)"/><use xlink:href="#aa" transform="matrix(1,0,0,1,467.01318005990277,317.13198415877935) translate(30.049382716049383 7.111111111111112)"/><use xlink:href="#ab" transform="matrix(1,0,0,1,467.01318005990277,317.13198415877935) translate(63.55555555555556 7.111111111111112)"/><use xlink:href="#ac" transform="matrix(1,0,0,1,467.01318005990277,317.13198415877935) translate(103.01234567901236 7.111111111111112)"/><use xlink:href="#ad" transform="matrix(1,0,0,1,467.01318005990277,317.13198415877935) translate(113.82716049382717 7.111111111111112)"/><path d="M492.2 348.26H350.85v-2H492.2zm221.97 0H590.32v-2h123.85z" stroke="#5e5e5e" stroke-width=".05" fill="#5e5e5e"/><path d="M350.87 348.26h-1.02v-2h1.02z" stroke="#5e5e5e" stroke-width=".05" fill="#5e5e5e"/><path d="M729.44 347.26l-14.27 4.64v-9.27z" fill="#5e5e5e"/><path d="M732.68 347.26l-18.5 6.02v-12.03zm-16.5 3.26l10.02-3.26-10.03-3.25z" stroke="#5e5e5e" stroke-width=".05" fill="#5e5e5e"/><use xlink:href="#ae" transform="matrix(1,0,0,1,492.19982282620975,341.9313112184206) translate(0 7.111111111111112)"/><use xlink:href="#H" transform="matrix(1,0,0,1,492.19982282620975,341.9313112184206) translate(30.12345679012346 7.111111111111112)"/><use xlink:href="#af" transform="matrix(1,0,0,1,492.19982282620975,341.9313112184206) translate(48.345679012345684 7.111111111111112)"/><use xlink:href="#ag" transform="matrix(1,0,0,1,492.19982282620975,341.9313112184206) translate(85.30864197530866 7.111111111111112)"/><path d="M571.52 367.7h-28.6v-2h28.6zm160.16 0h-72v-2h72z" stroke="#5e5e5e" stroke-width=".05" fill="#5e5e5e"/><path d="M732.68 367.7h-1.03v-2h1.03z" stroke="#5e5e5e" stroke-width=".05" fill="#5e5e5e"/><path d="M541.92 371.34l-14.26-4.64 14.26-4.63z" fill="#5e5e5e"/><path d="M542.92 372.7l-18.5-6 18.5-6zm-12.03-6l10.02 3.26v-6.52z" stroke="#5e5e5e" stroke-width=".05" fill="#5e5e5e"/><use xlink:href="#ah" transform="matrix(1,0,0,1,571.5194995843581,361.36728862105235) translate(0 7.111111111111112)"/><use xlink:href="#aa" transform="matrix(1,0,0,1,571.5194995843581,361.36728862105235) translate(27.55555555555556 7.111111111111112)"/><use xlink:href="#ai" transform="matrix(1,0,0,1,571.5194995843581,361.36728862105235) translate(61.061728395061735 7.111111111111112)"/><path d="M591.8 409.98h-66.38v-2h66.4zm122.37 0H665.3v-2h48.87z" stroke="#5e5e5e" stroke-width=".05" fill="#5e5e5e"/><path d="M525.45 409.98h-1.03v-2h1.03z" stroke="#5e5e5e" stroke-width=".05" fill="#5e5e5e"/><path d="M729.44 408.98l-14.27 4.63v-9.26z" fill="#5e5e5e"/><path d="M732.68 408.98l-18.5 6v-12zm-16.5 3.26l10.02-3.26-10.03-3.26z" stroke="#5e5e5e" stroke-width=".05" fill="#5e5e5e"/><use xlink:href="#aj" transform="matrix(1,0,0,1,591.8068516298979,403.6437129789469) translate(0 7.111111111111112)"/><use xlink:href="#ak" transform="matrix(1,0,0,1,591.8068516298979,403.6437129789469) translate(36.49382716049384 7.111111111111112)"/><path d="M1088.8 216.94v2h-21.7v-2zm-139.9 0v2h-6.97v-2z" stroke="#5e5e5e" stroke-width=".05" fill="#5e5e5e"/><path d="M941.96 218.94h-1.03v-2h1.03z" stroke="#5e5e5e" stroke-width=".05" fill="#5e5e5e"/><path d="M1104.06 217.94l-14.26 4.64v-9.27z" fill="#5e5e5e"/><path d="M1107.3 217.94l-18.5 6v-12zm-16.5 3.26l10.03-3.26-10.03-3.26z" stroke="#5e5e5e" stroke-width=".05" fill="#5e5e5e"/><use xlink:href="#al" transform="matrix(1,0,0,1,948.8884582882976,212.60739611809683) translate(0 7.111111111111112)"/><use xlink:href="#am" transform="matrix(1,0,0,1,948.8884582882976,212.60739611809683) translate(37.90123456790124 7.111111111111112)"/><use xlink:href="#an" transform="matrix(1,0,0,1,948.8884582882976,212.60739611809683) translate(69.40740740740742 7.111111111111112)"/><use xlink:href="#ao" transform="matrix(1,0,0,1,948.8884582882976,212.60739611809683) translate(89.60493827160495 7.111111111111112)"/><path d="M956.3 198.42a6 6 0 0 1 6-6H1072a6 6 0 0 1 6 6V239a6 6 0 0 1-6 6H962.3a6 6 0 0 1-6-6z" fill-opacity="0"/><path d="M957.02 195.58l.42-.7.6-.7.62-.52m1.48-.82l.3-.13.92-.2h1.5m2.02 0h3m2.02 0h3.02m2-.02h3.03m2 0H983m2 0h3.03m2.02 0h3.02m2 0h3.03m2 0h3.03m2-.02h3.02m2.02 0h3m2.02 0h3.02m2 0h3.03m2.02 0h3.02m2 0h3.03m2-.02h3.03m2 0h3.03m2 0h3.03m2 0h3.02m2.02 0h3m2.02 0h3.02m2-.02h3.03m2 0h1.52l.93.07.32.07m1.6.58l.67.42.7.6.53.62m.82 1.46l.13.3.22.92v1.56m0 2.07v3.13m0 2.07l.02 3.1m0 2.1v3.1m0 2.08l.02 3.1m0 2.1v3.1m0 2.07l.02 3.12m0 2.07v3.12m0 2.07V239l-.06.93-.08.32m-.58 1.58l-.4.68-.63.73-.6.52m-1.48.82l-.3.12-.92.2h-1.5m-2.02.02h-3m-2.02 0h-3.02m-2 0h-3.03m-2 0h-3.02m-2 0h-3.02m-2 0h-3.03m-2 .02h-3.03m-2 0h-3.03m-2.02 0h-3.02m-2 0h-3.03m-2 0h-3.03m-2 0h-3.03m-2 .02h-3.02m-2.02 0h-3m-2.02 0h-3m-2.02 0h-3.02m-2 0h-3.03m-2 0h-3.03m-2 .02h-3.03m-2 0h-3.03m-2 0h-3.03m-2 0h-1.5l-.94-.07-.32-.06m-1.6-.58l-.67-.42-.72-.6-.52-.62m-.82-1.47l-.1-.3-.23-.92v-1.56m0-2.08v-3.12m-.02-2.07V228m0-2.08v-3.12m-.02-2.07v-3.1m0-2.1v-3.1m0-2.08l-.02-3.1m0-2.1v-3.1m0-2.07v-1.56l.07-.94.07-.32" stroke="#5e5e5e" fill="none"/><path d="M956.3 189.8a6 6 0 0 1 6-6h92.26a6 6 0 0 1 6 6v20a6 6 0 0 1-6 6H962.3a6 6 0 0 1-6-6z" fill="none"/><use xlink:href="#ap" transform="matrix(1,0,0,1,968.2941623573751,195.79137535698885) translate(0 5.833333333333334)"/><use xlink:href="#aq" transform="matrix(1,0,0,1,968.2941623573751,195.79137535698885) translate(7.01851851851852 5.833333333333334)"/><use xlink:href="#ar" transform="matrix(1,0,0,1,968.2941623573751,195.79137535698885) translate(12.574074074074076 5.833333333333334)"/><use xlink:href="#as" transform="matrix(1,0,0,1,968.2941623573751,195.79137535698885) translate(27.000000000000004 5.833333333333334)"/><use xlink:href="#at" transform="matrix(1,0,0,1,968.2941623573751,195.79137535698885) translate(36.611111111111114 5.833333333333334)"/><use xlink:href="#N" transform="matrix(1,0,0,1,968.2941623573751,195.79137535698885) translate(65.12962962962963 5.833333333333334)"/><use xlink:href="#O" transform="matrix(1,0,0,1,968.2941623573751,195.79137535698885) translate(72.14814814814815 5.833333333333334)"/><path d="M732.68 443.57v199.1M732.68 443.6v-1.03M732.68 642.65v1.02M940.93 431.67l-.18 199.1M940.93 431.7v-1.03M940.75 630.75v1.02M524.43 429.85l2.07 199.1M524.43 429.87v-1.02M526.5 628.93v1.02" stroke="#5e5e5e" stroke-width="2" fill="none"/><path d="M1211.6 75.17a6 6 0 0 1 6-6h117a6 6 0 0 1 6 6v43.33a6 6 0 0 1-6 6h-117a6 6 0 0 1-6-6z" stroke="#5e5e5e" stroke-width="3" fill="#fff"/><use xlink:href="#au" transform="matrix(1,0,0,1,1214.3770629854944,71.93333333333335) translate(12.691358024691354 29.84722222222222)"/><use xlink:href="#av" transform="matrix(1,0,0,1,1214.3770629854944,71.93333333333335) translate(64 29.84722222222222)"/><path d="M1270.15 126.97V629" stroke="#5e5e5e" stroke-width="2" fill="none"/><path d="M1271.15 127h-2v-1.03h2z" stroke="#5e5e5e" stroke-width=".05" fill="#5e5e5e"/><path d="M1270.15 628.96V630" stroke="#5e5e5e" stroke-width="2" fill="none"/><path d="M1107.8 642.06h-2l.1-42.55h2zm.14-53.22h-2l.1-42.56h2zm.38-145.9l-.24 92.67h-2l.24-92.65z" stroke="#5e5e5e" stroke-width=".05" fill="#5e5e5e"/><path d="M1108.32 441.95v1.03h-2v-1.03zM1107.8 642.03v1.03h-2v-1.03zM794.9 433.52h-60v-2h60zm127.53 0h-42.5v-2h42.5zM734.9 433.52h-1v-2h1z" stroke="#5e5e5e" stroke-width=".05" fill="#5e5e5e"/><path d="M937.7 432.52l-14.27 4.63v-9.27z" fill="#5e5e5e"/><path d="M940.93 432.52l-18.5 6V426.5zm-16.5 3.25l10.03-3.25-10.03-3.26z" stroke="#5e5e5e" stroke-width=".05" fill="#5e5e5e"/><g><use xlink:href="#aw" transform="matrix(1,0,0,1,794.8939281924629,425.8483895325898) translate(0 8.88888888888889)"/><use xlink:href="#ax" transform="matrix(1,0,0,1,794.8939281924629,425.8483895325898) translate(38.79629629629629 8.88888888888889)"/></g><path d="M774.8 483.8H751.2v-2h23.63zm166.08 0h-70.5v-2h70.5z" stroke="#5e5e5e" stroke-width=".05" fill="#5e5e5e"/><path d="M941.88 483.8h-1.03v-2h1.03z" stroke="#5e5e5e" stroke-width=".05" fill="#5e5e5e"/><path d="M750.18 487.42l-14.27-4.63 14.28-4.65z" fill="#5e5e5e"/><path d="M751.18 488.8l-18.5-6 18.5-6.02zm-12.03-6l10.03 3.25v-6.52z" stroke="#5e5e5e" stroke-width=".05" fill="#5e5e5e"/><g><use xlink:href="#ay" transform="matrix(1,0,0,1,774.8143315096786,477.45473329527) translate(0 7.111111111111112)"/><use xlink:href="#az" transform="matrix(1,0,0,1,774.8143315096786,477.45473329527) translate(59.55555555555556 7.111111111111112)"/></g><path d="M819.3 520.26h-85.62v-2h85.62zm104.08 0h-68.13v-2h68.13z" stroke="#5e5e5e" stroke-width=".05" fill="#5e5e5e"/><path d="M938.64 519.26l-14.26 4.64v-9.27z" fill="#5e5e5e"/><path d="M941.88 519.26l-18.5 6v-12zm-16.5 3.26l10.03-3.26L925.4 516zM733.7 520.26h-1.02v-2h1.02z" stroke="#5e5e5e" stroke-width=".05" fill="#5e5e5e"/><g><use xlink:href="#aA" transform="matrix(1,0,0,1,819.3022642422873,513.9273094891097) translate(0 7.111111111111112)"/></g><path d="M946.63 447.1a6 6 0 0 1 6-6h47.5a6 6 0 0 1 6 6v28a6 6 0 0 1-6 6h-47.5a6 6 0 0 1-6-6z" stroke="#5e5e5e" stroke-width="3" fill-opacity="0"/><g><use xlink:href="#aB" transform="matrix(1,0,0,1,948.6257834246919,443.1016699728066) translate(5.51543209876543 13.38888888888889)"/><use xlink:href="#aC" transform="matrix(1,0,0,1,948.6257834246919,443.1016699728066) translate(13.50925925925926 26.722222222222225)"/></g><path d="M1075.07 541.95h-131.2v-2h131.2zm176.57 0h-62.45v-2h62.44z" stroke="#5e5e5e" stroke-width=".05" fill="#5e5e5e"/><path d="M943.9 541.95h-1.03v-2h1.02z" stroke="#5e5e5e" stroke-width=".05" fill="#5e5e5e"/><path d="M1266.9 540.95l-14.26 4.63v-9.27z" fill="#5e5e5e"/><path d="M1270.15 540.95l-18.5 6v-12zm-16.5 3.26l10.02-3.25-10.03-3.26z" stroke="#5e5e5e" stroke-width=".05" fill="#5e5e5e"/><g><use xlink:href="#aD" transform="matrix(1,0,0,1,1075.0667515677776,535.6137061449064) translate(0 7.111111111111112)"/><use xlink:href="#aE" transform="matrix(1,0,0,1,1075.0667515677776,535.6137061449064) translate(37.4567901234568 7.111111111111112)"/><use xlink:href="#ac" transform="matrix(1,0,0,1,1075.0667515677776,535.6137061449064) translate(71.95061728395063 7.111111111111112)"/><use xlink:href="#aF" transform="matrix(1,0,0,1,1075.0667515677776,535.6137061449064) translate(82.76543209876544 7.111111111111112)"/><use xlink:href="#aG" transform="matrix(1,0,0,1,1075.0667515677776,535.6137061449064) translate(108.71604938271606 7.111111111111112)"/></g><path d="M1141.77 569.55h-16.28v-2h16.27zm128.35 0h-66.8v-2h66.8z" stroke="#5e5e5e" stroke-width=".05" fill="#5e5e5e"/><path d="M1271.12 569.55h-1.03v-2h1.02z" stroke="#5e5e5e" stroke-width=".05" fill="#5e5e5e"/><path d="M1124.5 573.18l-14.27-4.63 14.26-4.64z" fill="#5e5e5e"/><path d="M1125.5 574.56l-18.5-6 18.5-6.02zm-12.04-6l10.03 3.25v-6.5z" stroke="#5e5e5e" stroke-width=".05" fill="#5e5e5e"/><g><use xlink:href="#aD" transform="matrix(1,0,0,1,1141.7662595890465,563.2145746159354) translate(0 7.111111111111112)"/><use xlink:href="#aH" transform="matrix(1,0,0,1,1141.7662595890465,563.2145746159354) translate(37.4567901234568 7.111111111111112)"/></g><path d="M1077.63 595.18H959.3v-2h118.33zm194.46 0h-135.85v-2h135.84z" stroke="#5e5e5e" stroke-width=".05" fill="#5e5e5e"/><path d="M1273.1 595.18h-1.04v-2h1.03z" stroke="#5e5e5e" stroke-width=".05" fill="#5e5e5e"/><path d="M958.3 598.8L944 594.2l14.27-4.64z" fill="#5e5e5e"/><path d="M959.3 600.2l-18.52-6.02 18.5-6zm-12.04-6.02l10.03 3.26v-6.52z" stroke="#5e5e5e" stroke-width=".05" fill="#5e5e5e"/><g><use xlink:href="#aD" transform="matrix(1,0,0,1,1077.6284355691937,588.8439524818469) translate(0 7.111111111111112)"/><use xlink:href="#aI" transform="matrix(1,0,0,1,1077.6284355691937,588.8439524818469) translate(37.4567901234568 7.111111111111112)"/></g><path d="M775.8 609.96h-24.62v-2h24.6zm166.07 0h-88.23v-2h88.23z" stroke="#5e5e5e" stroke-width=".05" fill="#5e5e5e"/><path d="M942.87 609.96h-1.03v-2h1.03z" stroke="#5e5e5e" stroke-width=".05" fill="#5e5e5e"/><path d="M750.18 613.6l-14.27-4.64 14.28-4.63z" fill="#5e5e5e"/><path d="M751.18 614.98l-18.5-6.02 18.5-6zm-12.03-6.02l10.03 3.26v-6.52z" stroke="#5e5e5e" stroke-width=".05" fill="#5e5e5e"/><g><use xlink:href="#aD" transform="matrix(1,0,0,1,775.7925666202533,603.6301320199053) translate(0 7.111111111111112)"/><use xlink:href="#aJ" transform="matrix(1,0,0,1,775.7925666202533,603.6301320199053) translate(37.4567901234568 7.111111111111112)"/></g><path d="M583.34 623.27h-38.4v-2h38.4zm149.55 0h-55.93v-2h55.92z" stroke="#5e5e5e" stroke-width=".05" fill="#5e5e5e"/><path d="M733.9 623.27h-1.04v-2h1.03z" stroke="#5e5e5e" stroke-width=".05" fill="#5e5e5e"/><path d="M543.93 626.9l-14.27-4.63 14.27-4.63z" fill="#5e5e5e"/><path d="M544.93 628.28l-18.5-6 18.5-6.02zm-12.03-6l10.03 3.25V619z" stroke="#5e5e5e" stroke-width=".05" fill="#5e5e5e"/><g><use xlink:href="#aK" transform="matrix(1,0,0,1,583.3430710258806,616.9376936041432) translate(0 7.111111111111112)"/><use xlink:href="#aL" transform="matrix(1,0,0,1,583.3430710258806,616.9376936041432) translate(56.14814814814815 7.111111111111112)"/></g><path d="M772.34 388.73a6 6 0 0 1 6-6h460.17a6 6 0 0 1 6 6v282.74a6 6 0 0 1-6 6H778.35a6 6 0 0 1-6-6z" fill-opacity="0"/><path d="M787.82 382.8h8.92m5.95 0h8.92m5.95 0h8.92m5.94 0h8.92m5.95 0h8.94m5.95 0h8.9m5.96 0H886m5.94 0h8.92m5.95 0h8.94m5.95 0l8.9-.02m5.96 0h8.93m5.94 0h8.92m5.95 0h8.94m5.95 0h8.9m5.96 0h8.92m5.95 0h8.93m5.95 0h8.93m5.95 0h8.93m5.96-.02h8.92m5.95 0h8.93m5.95 0h8.93m5.95 0h8.93m5.96 0h8.92m5.95 0h8.93m5.95 0h8.93m5.95 0h8.92m5.95 0l8.93-.02m5.95 0h8.92m5.95 0h8.93m5.95 0h8.92m5.95 0h4.46l.95.07.92.23.87.36.8.48.72.6.6.73.5.8.36.88.22.92v4.48m0 5.97v8.96m0 5.98v8.96m0 5.97v8.97m.02 5.97V452m0 5.97v8.96m0 5.97v8.96m0 5.97v8.96m0 5.96v8.96m0 5.97l.02 8.95m0 5.97v8.96m0 5.97v8.96m0 5.98v8.96m0 5.97v8.97m0 5.97l.02 8.96m0 5.97v8.96m0 5.97v8.96m0 5.97v8.96m0 5.96v8.96m0 5.97v4.47l-.06.94-.22.93-.36.87-.5.8-.6.72-.72.6-.8.5-.87.36-.92.22H1235m-5.96 0h-8.92m-5.95 0h-8.93m-5.95 0h-8.93m-5.95 0h-8.93m-5.96 0h-8.92m-5.95 0h-8.93m-5.95 0l-8.93.02m-5.95 0H1116m-5.96 0h-8.92m-5.95 0h-8.92m-5.95 0h-8.93m-5.95 0h-8.92m-5.95 0h-8.93m-5.95 0h-8.92m-5.95 0l-8.93.02m-5.95 0H997m-5.95 0h-8.93m-5.95 0h-8.92m-5.95 0h-8.93m-5.94 0h-8.93m-5.95 0h-8.92m-5.95 0h-8.93m-5.95 0h-8.92m-5.95.02H878m-5.95 0h-8.92m-5.95 0h-8.93m-5.95 0h-8.92m-5.95 0h-8.93m-5.95 0h-8.92m-5.95 0h-8.93m-5.94 0h-4.46l-.94-.06-.9-.22-.88-.36-.8-.5-.72-.6-.6-.72-.5-.8-.36-.87-.22-.92v-4.47m0-5.97V653m0-5.97v-8.96m0-5.97l-.02-8.96m0-5.97v-8.96m0-5.96v-8.96m0-5.97v-8.95m0-5.97v-8.96m0-5.97l-.02-8.96m0-5.98v-8.96m0-5.97v-8.97m0-5.97v-8.96m0-5.97v-8.96m0-5.97l-.02-8.96m0-5.97v-8.96m0-5.96v-8.96m0-5.97v-8.95m0-5.98v-8.95m0-5.98v-8.95m-.02-6v-4.47l.08-.93.22-.92.36-.87.5-.8.6-.7.72-.62.8-.5.87-.35.9-.22h4.47" stroke="#5e5e5e" stroke-width="3" fill="none"/><path d="M772.34 388.73a6 6 0 0 1 6-6h178.34a6 6 0 0 1 6 6v25.35a6 6 0 0 1-6 6H778.34a6 6 0 0 1-6-6z" fill="none"/><g><use xlink:href="#aM" transform="matrix(1,0,0,1,784.3427920295818,394.7349184211779) translate(0 9.222222222222221)"/><use xlink:href="#aN" transform="matrix(1,0,0,1,784.3427920295818,394.7349184211779) translate(29.598765432098766 9.222222222222221)"/><use xlink:href="#aO" transform="matrix(1,0,0,1,784.3427920295818,394.7349184211779) translate(41.2962962962963 9.222222222222221)"/><use xlink:href="#aP" transform="matrix(1,0,0,1,784.3427920295818,394.7349184211779) translate(50.55555555555556 9.222222222222221)"/><use xlink:href="#aQ" transform="matrix(1,0,0,1,784.3427920295818,394.7349184211779) translate(74.59876543209876 9.222222222222221)"/><use xlink:href="#aR" transform="matrix(1,0,0,1,784.3427920295818,394.7349184211779) translate(90.61728395061728 9.222222222222221)"/><use xlink:href="#aS" transform="matrix(1,0,0,1,784.3427920295818,394.7349184211779) translate(104.75308641975307 9.222222222222221)"/><use xlink:href="#aN" transform="matrix(1,0,0,1,784.3427920295818,394.7349184211779) translate(141.1111111111111 9.222222222222221)"/><use xlink:href="#aT" transform="matrix(1,0,0,1,784.3427920295818,394.7349184211779) translate(152.8086419753086 9.222222222222221)"/></g><defs><linearGradient gradientUnits="userSpaceOnUse" id="a" x1="164" y1="-22.5" x2="158" y2="-28.5"><stop offset="0%" stop-color="#6f7681" stop-opacity=".25"/><stop offset="50%" stop-color="#6f7681" stop-opacity="0"/></linearGradient><linearGradient gradientUnits="userSpaceOnUse" id="b" x1="164" y1="923.7" x2="164" y2="-28.5"><stop offset="0%" stop-color="#6f7681" stop-opacity="0"/><stop offset="99.37%" stop-color="#6f7681" stop-opacity=".25"/><stop offset="99.36%" stop-color="#6f7681" stop-opacity="0"/><stop offset="100%" stop-color="#6f7681" stop-opacity="0"/></linearGradient><linearGradient gradientUnits="userSpaceOnUse" id="c" x1="1620" y1="-22.5" x2="1626" y2="-28.5"><stop offset="0%" stop-color="#6f7681" stop-opacity=".25"/><stop offset="50%" stop-color="#6f7681" stop-opacity="0"/></linearGradient><linearGradient gradientUnits="userSpaceOnUse" id="d" x1="158" y1="-22.5" x2="1626" y2="-22.5"><stop offset="0%" stop-color="#6f7681" stop-opacity="0"/><stop offset="99.59%" stop-color="#6f7681" stop-opacity=".25"/><stop offset="99.58%" stop-color="#6f7681" stop-opacity="0"/><stop offset="100%" stop-color="#6f7681" stop-opacity="0"/></linearGradient><linearGradient gradientUnits="userSpaceOnUse" id="e" x1="1620" y1="917.7" x2="1626" y2="923.7"><stop offset="0%" stop-color="#6f7681" stop-opacity=".25"/><stop offset="50%" stop-color="#6f7681" stop-opacity="0"/></linearGradient><linearGradient gradientUnits="userSpaceOnUse" id="f" x1="164" y1="-28.5" x2="164" y2="923.7"><stop offset="0%" stop-color="#6f7681" stop-opacity="0"/><stop offset="99.37%" stop-color="#6f7681" stop-opacity=".25"/><stop offset="99.36%" stop-color="#6f7681" stop-opacity="0"/><stop offset="100%" stop-color="#6f7681" stop-opacity="0"/></linearGradient><linearGradient gradientUnits="userSpaceOnUse" id="g" x1="164" y1="917.7" x2="158" y2="923.7"><stop offset="0%" stop-color="#6f7681" stop-opacity=".25"/><stop offset="50%" stop-color="#6f7681" stop-opacity="0"/></linearGradient><linearGradient gradientUnits="userSpaceOnUse" id="h" x1="1626" y1="-22.5" x2="158" y2="-22.5"><stop offset="0%" stop-color="#6f7681" stop-opacity="0"/><stop offset="99.59%" stop-color="#6f7681" stop-opacity=".25"/><stop offset="99.58%" stop-color="#6f7681" stop-opacity="0"/><stop offset="100%" stop-color="#6f7681" stop-opacity="0"/></linearGradient><path fill="#333" d="M63-220v92h138v28H63V0H30v-248h175v28H63" id="aU"/><path fill="#333" d="M24-231v-30h32v30H24zM24 0v-190h32V0H24" id="aV"/><path fill="#333" d="M117-194c89-4 53 116 60 194h-32v-121c0-31-8-49-39-48C34-167 62-67 57 0H25l-1-190h30c1 10-1 24 2 32 11-22 29-35 61-36" id="aW"/><path fill="#333" d="M141-36C126-15 110 5 73 4 37 3 15-17 15-53c-1-64 63-63 125-63 3-35-9-54-41-54-24 1-41 7-42 31l-33-3c5-37 33-52 76-52 45 0 72 20 72 64v82c-1 20 7 32 28 27v20c-31 9-61-2-59-35zM48-53c0 20 12 33 32 33 41-3 63-29 60-74-43 2-92-5-92 41" id="aX"/><path fill="#333" d="M96-169c-40 0-48 33-48 73s9 75 48 75c24 0 41-14 43-38l32 2c-6 37-31 61-74 61-59 0-76-41-82-99-10-93 101-131 147-64 4 7 5 14 7 22l-32 3c-4-21-16-35-41-35" id="aY"/><path fill="#333" d="M100-194c63 0 86 42 84 106H49c0 40 14 67 53 68 26 1 43-12 49-29l28 8c-11 28-37 45-77 45C44 4 14-33 15-96c1-61 26-98 85-98zm52 81c6-60-76-77-97-28-3 7-6 17-6 28h103" id="aZ"/><g id="i"><use transform="matrix(0.04938271604938272,0,0,0.04938271604938272,0,0)" xlink:href="#aU"/><use transform="matrix(0.04938271604938272,0,0,0.04938271604938272,10.814814814814815,0)" xlink:href="#aV"/><use transform="matrix(0.04938271604938272,0,0,0.04938271604938272,14.71604938271605,0)" xlink:href="#aW"/><use transform="matrix(0.04938271604938272,0,0,0.04938271604938272,24.592592592592595,0)" xlink:href="#aX"/><use transform="matrix(0.04938271604938272,0,0,0.04938271604938272,34.46913580246914,0)" xlink:href="#aW"/><use transform="matrix(0.04938271604938272,0,0,0.04938271604938272,44.345679012345684,0)" xlink:href="#aY"/><use transform="matrix(0.04938271604938272,0,0,0.04938271604938272,53.23456790123457,0)" xlink:href="#aZ"/></g><path fill="#333" d="M240 0l2-218c-23 76-54 145-80 218h-23L58-218 59 0H30v-248h44l77 211c21-75 51-140 76-211h43V0h-30" id="ba"/><path fill="#333" d="M177-190C167-65 218 103 67 71c-23-6-38-20-44-43l32-5c15 47 100 32 89-28v-30C133-14 115 1 83 1 29 1 15-40 15-95c0-56 16-97 71-98 29-1 48 16 59 35 1-10 0-23 2-32h30zM94-22c36 0 50-32 50-73 0-42-14-75-50-75-39 0-46 34-46 75s6 73 46 73" id="bb"/><path fill="#333" d="M114-163C36-179 61-72 57 0H25l-1-190h30c1 12-1 29 2 39 6-27 23-49 58-41v29" id="bc"/><g id="j"><use transform="matrix(0.04938271604938272,0,0,0.04938271604938272,0,0)" xlink:href="#ba"/><use transform="matrix(0.04938271604938272,0,0,0.04938271604938272,14.765432098765434,0)" xlink:href="#aX"/><use transform="matrix(0.04938271604938272,0,0,0.04938271604938272,24.641975308641978,0)" xlink:href="#aW"/><use transform="matrix(0.04938271604938272,0,0,0.04938271604938272,34.51851851851852,0)" xlink:href="#aX"/><use transform="matrix(0.04938271604938272,0,0,0.04938271604938272,44.39506172839506,0)" xlink:href="#bb"/><use transform="matrix(0.04938271604938272,0,0,0.04938271604938272,54.27160493827161,0)" xlink:href="#aZ"/><use transform="matrix(0.04938271604938272,0,0,0.04938271604938272,64.14814814814815,0)" xlink:href="#bc"/></g><g id="k"><use transform="matrix(0.04938271604938272,0,0,0.04938271604938272,0,0)" xlink:href="#aU"/><use transform="matrix(0.04938271604938272,0,0,0.04938271604938272,10.814814814814815,0)" xlink:href="#aV"/><use transform="matrix(0.04938271604938272,0,0,0.04938271604938272,14.71604938271605,0)" xlink:href="#aW"/><use transform="matrix(0.04938271604938272,0,0,0.04938271604938272,24.592592592592595,0)" xlink:href="#aX"/><use transform="matrix(0.04938271604938272,0,0,0.04938271604938272,34.46913580246914,0)" xlink:href="#aW"/><use transform="matrix(0.04938271604938272,0,0,0.04938271604938272,44.345679012345684,0)" xlink:href="#aY"/><use transform="matrix(0.04938271604938272,0,0,0.04938271604938272,53.23456790123457,0)" xlink:href="#aZ"/></g><path fill="#333" d="M140-251c81 0 123 46 123 126C263-46 219 4 140 4 59 4 17-45 17-125s42-126 123-126zm0 227c63 0 89-41 89-101s-29-99-89-99c-61 0-89 39-89 99S79-25 140-24" id="bd"/><path fill="#333" d="M101-234c-31-9-42 10-38 44h38v23H63V0H32v-167H5v-23h27c-7-52 17-82 69-68v24" id="be"/><g id="l"><use transform="matrix(0.04938271604938272,0,0,0.04938271604938272,0,0)" xlink:href="#bd"/><use transform="matrix(0.04938271604938272,0,0,0.04938271604938272,13.827160493827162,0)" xlink:href="#be"/><use transform="matrix(0.04938271604938272,0,0,0.04938271604938272,18.419753086419753,0)" xlink:href="#be"/><use transform="matrix(0.04938271604938272,0,0,0.04938271604938272,23.358024691358025,0)" xlink:href="#aV"/><use transform="matrix(0.04938271604938272,0,0,0.04938271604938272,27.259259259259263,0)" xlink:href="#aY"/><use transform="matrix(0.04938271604938272,0,0,0.04938271604938272,36.14814814814815,0)" xlink:href="#aZ"/><use transform="matrix(0.04938271604938272,0,0,0.04938271604938272,46.0246913580247,0)" xlink:href="#bc"/></g><path fill="#333" d="M205 0l-28-72H64L36 0H1l101-248h38L239 0h-34zm-38-99l-47-123c-12 45-31 82-46 123h93" id="bf"/><path fill="#333" d="M24 0v-261h32V0H24" id="bg"/><path fill="#333" d="M135-143c-3-34-86-38-87 0 15 53 115 12 119 90S17 21 10-45l28-5c4 36 97 45 98 0-10-56-113-15-118-90-4-57 82-63 122-42 12 7 21 19 24 35" id="bh"/><path fill="#333" d="M59-47c-2 24 18 29 38 22v24C64 9 27 4 27-40v-127H5v-23h24l9-43h21v43h35v23H59v120" id="bi"/><g id="m"><use transform="matrix(0.04938271604938272,0,0,0.04938271604938272,0,0)" xlink:href="#bf"/><use transform="matrix(0.04938271604938272,0,0,0.04938271604938272,11.851851851851853,0)" xlink:href="#bg"/><use transform="matrix(0.04938271604938272,0,0,0.04938271604938272,15.753086419753087,0)" xlink:href="#be"/><use transform="matrix(0.04938271604938272,0,0,0.04938271604938272,20.69135802469136,0)" xlink:href="#aX"/><use transform="matrix(0.04938271604938272,0,0,0.04938271604938272,30.567901234567906,0)" xlink:href="#bh"/><use transform="matrix(0.04938271604938272,0,0,0.04938271604938272,39.4567901234568,0)" xlink:href="#aZ"/><use transform="matrix(0.04938271604938272,0,0,0.04938271604938272,49.33333333333334,0)" xlink:href="#aW"/><use transform="matrix(0.04938271604938272,0,0,0.04938271604938272,59.209876543209894,0)" xlink:href="#bi"/><use transform="matrix(0.04938271604938272,0,0,0.04938271604938272,64.14814814814815,0)" xlink:href="#aZ"/></g><path fill="#333" d="M87 75C49 33 22-17 22-94c0-76 28-126 65-167h31c-38 41-64 92-64 168S80 34 118 75H87" id="bj"/><path fill="#333" d="M30-248c87 1 191-15 191 75 0 78-77 80-158 76V0H30v-248zm33 125c57 0 124 11 124-50 0-59-68-47-124-48v98" id="bk"/><path fill="#333" d="M33 0v-248h34V0H33" id="bl"/><path fill="#333" d="M185-189c-5-48-123-54-124 2 14 75 158 14 163 119 3 78-121 87-175 55-17-10-28-26-33-46l33-7c5 56 141 63 141-1 0-78-155-14-162-118-5-82 145-84 179-34 5 7 8 16 11 25" id="bm"/><path fill="#333" d="M33-261c38 41 65 92 65 168S71 34 33 75H2C39 34 66-17 66-93S39-220 2-261h31" id="bn"/><g id="n"><use transform="matrix(0.04938271604938272,0,0,0.04938271604938272,0,0)" xlink:href="#bj"/><use transform="matrix(0.04938271604938272,0,0,0.04938271604938272,5.8765432098765435,0)" xlink:href="#bk"/><use transform="matrix(0.04938271604938272,0,0,0.04938271604938272,17.728395061728396,0)" xlink:href="#bl"/><use transform="matrix(0.04938271604938272,0,0,0.04938271604938272,22.666666666666668,0)" xlink:href="#bm"/><use transform="matrix(0.04938271604938272,0,0,0.04938271604938272,34.51851851851852,0)" xlink:href="#bk"/><use transform="matrix(0.04938271604938272,0,0,0.04938271604938272,46.370370370370374,0)" xlink:href="#bn"/></g><path fill="#333" d="M100-194c62-1 85 37 85 99 1 63-27 99-86 99S16-35 15-95c0-66 28-99 85-99zM99-20c44 1 53-31 53-75 0-43-8-75-51-75s-53 32-53 75 10 74 51 75" id="bo"/><path fill="#333" d="M24-231v-30h32v30H24zM-9 49c24 4 33-6 33-30v-209h32V24c2 40-23 58-65 49V49" id="bp"/><path fill="#333" d="M115-194c55 1 70 41 70 98S169 2 115 4C84 4 66-9 55-30l1 105H24l-1-265h31l2 30c10-21 28-34 59-34zm-8 174c40 0 45-34 45-75s-6-73-45-74c-42 0-51 32-51 76 0 43 10 73 51 73" id="bq"/><g id="o"><use transform="matrix(0.06172839506172839,0,0,0.06172839506172839,0,0)" xlink:href="#ba"/><use transform="matrix(0.06172839506172839,0,0,0.06172839506172839,18.456790123456788,0)" xlink:href="#bo"/><use transform="matrix(0.06172839506172839,0,0,0.06172839506172839,30.80246913580247,0)" xlink:href="#bp"/><use transform="matrix(0.06172839506172839,0,0,0.06172839506172839,35.67901234567901,0)" xlink:href="#aX"/><use transform="matrix(0.06172839506172839,0,0,0.06172839506172839,48.02469135802469,0)" xlink:href="#bg"/><use transform="matrix(0.06172839506172839,0,0,0.06172839506172839,52.901234567901234,0)" xlink:href="#bo"/><use transform="matrix(0.06172839506172839,0,0,0.06172839506172839,65.24691358024691,0)" xlink:href="#bo"/><use transform="matrix(0.06172839506172839,0,0,0.06172839506172839,77.5925925925926,0)" xlink:href="#bq"/></g><path fill="#333" d="M206 0h-36l-40-164L89 0H53L-1-190h32L70-26l43-164h34l41 164 42-164h31" id="br"/><path fill="#333" d="M106-169C34-169 62-67 57 0H25v-261h32l-1 103c12-21 28-36 61-36 89 0 53 116 60 194h-32v-121c2-32-8-49-39-48" id="bs"/><g id="p"><use transform="matrix(0.06172839506172839,0,0,0.06172839506172839,0,0)" xlink:href="#bm"/><use transform="matrix(0.06172839506172839,0,0,0.06172839506172839,14.814814814814813,0)" xlink:href="#br"/><use transform="matrix(0.06172839506172839,0,0,0.06172839506172839,30.80246913580247,0)" xlink:href="#aV"/><use transform="matrix(0.06172839506172839,0,0,0.06172839506172839,35.67901234567901,0)" xlink:href="#bi"/><use transform="matrix(0.06172839506172839,0,0,0.06172839506172839,41.851851851851855,0)" xlink:href="#aY"/><use transform="matrix(0.06172839506172839,0,0,0.06172839506172839,52.96296296296296,0)" xlink:href="#bs"/></g><path fill="#333" d="M179-190L93 31C79 59 56 82 12 73V49c39 6 53-20 64-50L1-190h34L92-34l54-156h33" id="bt"/><g id="q"><use transform="matrix(0.04938271604938272,0,0,0.04938271604938272,0,0)" xlink:href="#bk"/><use transform="matrix(0.04938271604938272,0,0,0.04938271604938272,11.851851851851853,0)" xlink:href="#aX"/><use transform="matrix(0.04938271604938272,0,0,0.04938271604938272,21.7283950617284,0)" xlink:href="#bt"/><use transform="matrix(0.04938271604938272,0,0,0.04938271604938272,30.617283950617285,0)" xlink:href="#aZ"/><use transform="matrix(0.04938271604938272,0,0,0.04938271604938272,40.49382716049384,0)" xlink:href="#aZ"/></g><path fill="#333" d="M30-248c118-7 216 8 213 122C240-48 200 0 122 0H30v-248zM63-27c89 8 146-16 146-99s-60-101-146-95v194" id="bu"/><g id="r"><use transform="matrix(0.04938271604938272,0,0,0.04938271604938272,0,0)" xlink:href="#bu"/><use transform="matrix(0.04938271604938272,0,0,0.04938271604938272,12.790123456790125,0)" xlink:href="#aU"/><use transform="matrix(0.04938271604938272,0,0,0.04938271604938272,23.60493827160494,0)" xlink:href="#bm"/><use transform="matrix(0.04938271604938272,0,0,0.04938271604938272,35.45679012345679,0)" xlink:href="#bk"/></g><path fill="#333" d="M27 0v-27h64v-190l-56 39v-29l58-41h29v221h61V0H27" id="bv"/><path fill="#333" d="M16-82v-28h88v28H16" id="bw"/><g id="s"><use transform="matrix(0.04938271604938272,0,0,0.04938271604938272,0,0)" xlink:href="#bv"/><use transform="matrix(0.04938271604938272,0,0,0.04938271604938272,9.876543209876544,0)" xlink:href="#bw"/><use transform="matrix(0.04938271604938272,0,0,0.04938271604938272,15.753086419753087,0)" xlink:href="#bw"/><use transform="matrix(0.04938271604938272,0,0,0.04938271604938272,21.629629629629633,0)" xlink:href="#bw"/><use transform="matrix(0.04938271604938272,0,0,0.04938271604938272,27.506172839506174,0)" xlink:href="#aW"/></g><path fill="#333" d="M84 4C-5 8 30-112 23-190h32v120c0 31 7 50 39 49 72-2 45-101 50-169h31l1 190h-30c-1-10 1-25-2-33-11 22-28 36-60 37" id="bx"/><g id="t"><use transform="matrix(0.02469135802469136,0,0,0.02469135802469136,0,0)" xlink:href="#bk"/><use transform="matrix(0.02469135802469136,0,0,0.02469135802469136,5.9259259259259265,0)" xlink:href="#bo"/><use transform="matrix(0.02469135802469136,0,0,0.02469135802469136,10.8641975308642,0)" xlink:href="#bq"/><use transform="matrix(0.02469135802469136,0,0,0.02469135802469136,15.80246913580247,0)" xlink:href="#bx"/><use transform="matrix(0.02469135802469136,0,0,0.02469135802469136,20.740740740740744,0)" xlink:href="#bg"/><use transform="matrix(0.02469135802469136,0,0,0.02469135802469136,22.69135802469136,0)" xlink:href="#aX"/><use transform="matrix(0.02469135802469136,0,0,0.02469135802469136,27.629629629629633,0)" xlink:href="#bi"/><use transform="matrix(0.02469135802469136,0,0,0.02469135802469136,30.09876543209877,0)" xlink:href="#aZ"/></g><path fill="#333" d="M30 0v-248h33v221h125V0H30" id="by"/><g id="u"><use transform="matrix(0.02469135802469136,0,0,0.02469135802469136,0,0)" xlink:href="#by"/><use transform="matrix(0.02469135802469136,0,0,0.02469135802469136,4.938271604938272,0)" xlink:href="#aV"/><use transform="matrix(0.02469135802469136,0,0,0.02469135802469136,6.888888888888889,0)" xlink:href="#bh"/><use transform="matrix(0.02469135802469136,0,0,0.02469135802469136,11.333333333333334,0)" xlink:href="#bi"/></g><g id="v"><use transform="matrix(0.02469135802469136,0,0,0.02469135802469136,0,0)" xlink:href="#bo"/><use transform="matrix(0.02469135802469136,0,0,0.02469135802469136,4.938271604938272,0)" xlink:href="#be"/></g><path fill="#333" d="M115-194c53 0 69 39 70 98 0 66-23 100-70 100C84 3 66-7 56-30L54 0H23l1-261h32v101c10-23 28-34 59-34zm-8 174c40 0 45-34 45-75 0-40-5-75-45-74-42 0-51 32-51 76 0 43 10 73 51 73" id="bz"/><g id="w"><use transform="matrix(0.02469135802469136,0,0,0.02469135802469136,0,0)" xlink:href="#bz"/><use transform="matrix(0.02469135802469136,0,0,0.02469135802469136,4.938271604938272,0)" xlink:href="#aZ"/><use transform="matrix(0.02469135802469136,0,0,0.02469135802469136,9.876543209876544,0)" xlink:href="#aW"/><use transform="matrix(0.02469135802469136,0,0,0.02469135802469136,14.814814814814817,0)" xlink:href="#aZ"/><use transform="matrix(0.02469135802469136,0,0,0.02469135802469136,19.75308641975309,0)" xlink:href="#be"/><use transform="matrix(0.02469135802469136,0,0,0.02469135802469136,22.222222222222225,0)" xlink:href="#aV"/><use transform="matrix(0.02469135802469136,0,0,0.02469135802469136,24.172839506172842,0)" xlink:href="#aY"/><use transform="matrix(0.02469135802469136,0,0,0.02469135802469136,28.617283950617285,0)" xlink:href="#aV"/><use transform="matrix(0.02469135802469136,0,0,0.02469135802469136,30.567901234567906,0)" xlink:href="#aX"/><use transform="matrix(0.02469135802469136,0,0,0.02469135802469136,35.50617283950618,0)" xlink:href="#bc"/><use transform="matrix(0.02469135802469136,0,0,0.02469135802469136,38.44444444444445,0)" xlink:href="#aV"/><use transform="matrix(0.02469135802469136,0,0,0.02469135802469136,40.39506172839507,0)" xlink:href="#aZ"/><use transform="matrix(0.02469135802469136,0,0,0.02469135802469136,45.33333333333334,0)" xlink:href="#bh"/></g><g id="x"><use transform="matrix(0.02469135802469136,0,0,0.02469135802469136,0,0)" xlink:href="#bf"/><use transform="matrix(0.02469135802469136,0,0,0.02469135802469136,5.9259259259259265,0)" xlink:href="#aY"/><use transform="matrix(0.02469135802469136,0,0,0.02469135802469136,10.37037037037037,0)" xlink:href="#aY"/><use transform="matrix(0.02469135802469136,0,0,0.02469135802469136,14.814814814814817,0)" xlink:href="#bo"/><use transform="matrix(0.02469135802469136,0,0,0.02469135802469136,19.75308641975309,0)" xlink:href="#bx"/><use transform="matrix(0.02469135802469136,0,0,0.02469135802469136,24.69135802469136,0)" xlink:href="#aW"/><use transform="matrix(0.02469135802469136,0,0,0.02469135802469136,29.629629629629633,0)" xlink:href="#bi"/></g><path fill="#333" d="M143 0L79-87 56-68V0H24v-261h32v163l83-92h37l-77 82L181 0h-38" id="bA"/><g id="y"><use transform="matrix(0.02469135802469136,0,0,0.02469135802469136,0,0)" xlink:href="#by"/><use transform="matrix(0.02469135802469136,0,0,0.02469135802469136,4.938271604938272,0)" xlink:href="#bo"/><use transform="matrix(0.02469135802469136,0,0,0.02469135802469136,9.876543209876544,0)" xlink:href="#bo"/><use transform="matrix(0.02469135802469136,0,0,0.02469135802469136,14.814814814814817,0)" xlink:href="#bA"/><use transform="matrix(0.02469135802469136,0,0,0.02469135802469136,19.25925925925926,0)" xlink:href="#bx"/><use transform="matrix(0.02469135802469136,0,0,0.02469135802469136,24.19753086419753,0)" xlink:href="#bq"/></g><g id="z"><use transform="matrix(0.02469135802469136,0,0,0.02469135802469136,0,0)" xlink:href="#be"/><use transform="matrix(0.02469135802469136,0,0,0.02469135802469136,2.469135802469136,0)" xlink:href="#bo"/><use transform="matrix(0.02469135802469136,0,0,0.02469135802469136,7.407407407407408,0)" xlink:href="#bc"/></g><g id="A"><use transform="matrix(0.02469135802469136,0,0,0.02469135802469136,0,0)" xlink:href="#aX"/><use transform="matrix(0.02469135802469136,0,0,0.02469135802469136,4.938271604938272,0)" xlink:href="#bg"/><use transform="matrix(0.02469135802469136,0,0,0.02469135802469136,6.888888888888889,0)" xlink:href="#bg"/></g><path fill="#333" d="M85-194c31 0 48 13 60 33l-1-100h32l1 261h-30c-2-10 0-23-3-31C134-8 116 4 85 4 32 4 16-35 15-94c0-66 23-100 70-100zm9 24c-40 0-46 34-46 75 0 40 6 74 45 74 42 0 51-32 51-76 0-42-9-74-50-73" id="bB"/><g id="B"><use transform="matrix(0.02469135802469136,0,0,0.02469135802469136,0,0)" xlink:href="#bg"/><use transform="matrix(0.02469135802469136,0,0,0.02469135802469136,1.9506172839506175,0)" xlink:href="#aV"/><use transform="matrix(0.02469135802469136,0,0,0.02469135802469136,3.901234567901235,0)" xlink:href="#bh"/><use transform="matrix(0.02469135802469136,0,0,0.02469135802469136,8.34567901234568,0)" xlink:href="#bi"/><use transform="matrix(0.02469135802469136,0,0,0.02469135802469136,10.814814814814817,0)" xlink:href="#aZ"/><use transform="matrix(0.02469135802469136,0,0,0.02469135802469136,15.753086419753087,0)" xlink:href="#bB"/></g><g id="C"><use transform="matrix(0.02469135802469136,0,0,0.02469135802469136,0,0)" xlink:href="#bq"/><use transform="matrix(0.02469135802469136,0,0,0.02469135802469136,4.938271604938272,0)" xlink:href="#aZ"/><use transform="matrix(0.02469135802469136,0,0,0.02469135802469136,9.876543209876544,0)" xlink:href="#bo"/><use transform="matrix(0.02469135802469136,0,0,0.02469135802469136,14.814814814814817,0)" xlink:href="#bq"/><use transform="matrix(0.02469135802469136,0,0,0.02469135802469136,19.75308641975309,0)" xlink:href="#bg"/><use transform="matrix(0.02469135802469136,0,0,0.02469135802469136,21.703703703703706,0)" xlink:href="#aZ"/></g><g id="D"><use transform="matrix(0.02469135802469136,0,0,0.02469135802469136,0,0)" xlink:href="#aX"/><use transform="matrix(0.02469135802469136,0,0,0.02469135802469136,4.938271604938272,0)" xlink:href="#aW"/><use transform="matrix(0.02469135802469136,0,0,0.02469135802469136,9.876543209876544,0)" xlink:href="#bB"/></g><path fill="#333" d="M210-169c-67 3-38 105-44 169h-31v-121c0-29-5-50-35-48C34-165 62-65 56 0H25l-1-190h30c1 10-1 24 2 32 10-44 99-50 107 0 11-21 27-35 58-36 85-2 47 119 55 194h-31v-121c0-29-5-49-35-48" id="bC"/><g id="E"><use transform="matrix(0.02469135802469136,0,0,0.02469135802469136,0,0)" xlink:href="#aW"/><use transform="matrix(0.02469135802469136,0,0,0.02469135802469136,4.938271604938272,0)" xlink:href="#aX"/><use transform="matrix(0.02469135802469136,0,0,0.02469135802469136,9.876543209876544,0)" xlink:href="#bC"/><use transform="matrix(0.02469135802469136,0,0,0.02469135802469136,17.25925925925926,0)" xlink:href="#aZ"/></g><path fill="#333" d="M108 0H70L1-190h34L89-25l56-165h34" id="bD"/><g id="F"><use transform="matrix(0.02469135802469136,0,0,0.02469135802469136,0,0)" xlink:href="#bD"/><use transform="matrix(0.02469135802469136,0,0,0.02469135802469136,4.444444444444445,0)" xlink:href="#aZ"/><use transform="matrix(0.02469135802469136,0,0,0.02469135802469136,9.382716049382717,0)" xlink:href="#bc"/><use transform="matrix(0.02469135802469136,0,0,0.02469135802469136,12.320987654320989,0)" xlink:href="#aV"/><use transform="matrix(0.02469135802469136,0,0,0.02469135802469136,14.271604938271606,0)" xlink:href="#be"/><use transform="matrix(0.02469135802469136,0,0,0.02469135802469136,16.74074074074074,0)" xlink:href="#aV"/><use transform="matrix(0.02469135802469136,0,0,0.02469135802469136,18.691358024691358,0)" xlink:href="#aY"/><use transform="matrix(0.02469135802469136,0,0,0.02469135802469136,23.135802469135804,0)" xlink:href="#aX"/><use transform="matrix(0.02469135802469136,0,0,0.02469135802469136,28.074074074074076,0)" xlink:href="#bi"/><use transform="matrix(0.02469135802469136,0,0,0.02469135802469136,30.543209876543212,0)" xlink:href="#aV"/><use transform="matrix(0.02469135802469136,0,0,0.02469135802469136,32.49382716049383,0)" xlink:href="#bo"/><use transform="matrix(0.02469135802469136,0,0,0.02469135802469136,37.4320987654321,0)" xlink:href="#aW"/></g><path fill="#333" d="M147 0H94L2-248h55l64 206c17-72 42-137 63-206h54" id="bE"/><path fill="#333" d="M185-48c-13 30-37 53-82 52C43 2 14-33 14-96s30-98 90-98c62 0 83 45 84 108H66c0 31 8 55 39 56 18 0 30-7 34-22zm-45-69c5-46-57-63-70-21-2 6-4 13-4 21h74" id="bF"/><path fill="#333" d="M135-150c-39-12-60 13-60 57V0H25l-1-190h47c2 13-1 29 3 40 6-28 27-53 61-41v41" id="bG"/><path fill="#333" d="M25-224v-37h50v37H25zM25 0v-190h50V0H25" id="bH"/><path fill="#333" d="M121-226c-27-7-43 5-38 36h38v33H83V0H34v-157H6v-33h28c-9-59 32-81 87-68v32" id="bI"/><path fill="#333" d="M190-63c-7 42-38 67-86 67-59 0-84-38-90-98-12-110 154-137 174-36l-49 2c-2-19-15-32-35-32-30 0-35 28-38 64-6 74 65 87 74 30" id="bJ"/><path fill="#333" d="M133-34C117-15 103 5 69 4 32 3 11-16 11-54c-1-60 55-63 116-61 1-26-3-47-28-47-18 1-26 9-28 27l-52-2c7-38 36-58 82-57s74 22 75 68l1 82c-1 14 12 18 25 15v27c-30 8-71 5-69-32zm-48 3c29 0 43-24 42-57-32 0-66-3-65 30 0 17 8 27 23 27" id="bK"/><path fill="#333" d="M115-3C79 11 28 4 28-45v-112H4v-33h27l15-45h31v45h36v33H77v99c-1 23 16 31 38 25v30" id="bL"/><path fill="#333" d="M110-194c64 0 96 36 96 99 0 64-35 99-97 99-61 0-95-36-95-99 0-62 34-99 96-99zm-1 164c35 0 45-28 45-65 0-40-10-65-43-65-34 0-45 26-45 65 0 36 10 65 43 65" id="bM"/><path fill="#333" d="M135-194c87-1 58 113 63 194h-50c-7-57 23-157-34-157-59 0-34 97-39 157H25l-1-190h47c2 12-1 28 3 38 12-26 28-41 61-42" id="bN"/><g id="G"><use transform="matrix(0.02469135802469136,0,0,0.02469135802469136,0,0)" xlink:href="#bE"/><use transform="matrix(0.02469135802469136,0,0,0.02469135802469136,5.432098765432099,0)" xlink:href="#bF"/><use transform="matrix(0.02469135802469136,0,0,0.02469135802469136,10.37037037037037,0)" xlink:href="#bG"/><use transform="matrix(0.02469135802469136,0,0,0.02469135802469136,13.827160493827162,0)" xlink:href="#bH"/><use transform="matrix(0.02469135802469136,0,0,0.02469135802469136,16.296296296296298,0)" xlink:href="#bI"/><use transform="matrix(0.02469135802469136,0,0,0.02469135802469136,19.23456790123457,0)" xlink:href="#bH"/><use transform="matrix(0.02469135802469136,0,0,0.02469135802469136,21.703703703703706,0)" xlink:href="#bJ"/><use transform="matrix(0.02469135802469136,0,0,0.02469135802469136,26.641975308641978,0)" xlink:href="#bK"/><use transform="matrix(0.02469135802469136,0,0,0.02469135802469136,31.58024691358025,0)" xlink:href="#bL"/><use transform="matrix(0.02469135802469136,0,0,0.02469135802469136,34.51851851851852,0)" xlink:href="#bH"/><use transform="matrix(0.02469135802469136,0,0,0.02469135802469136,36.98765432098766,0)" xlink:href="#bM"/><use transform="matrix(0.02469135802469136,0,0,0.02469135802469136,42.39506172839506,0)" xlink:href="#bN"/></g><path fill="#333" d="M88-194c31-1 46 15 58 34l-1-101h50l1 261h-48c-2-10 0-23-3-31C134-8 116 4 84 4 32 4 16-41 15-95c0-56 19-97 73-99zm17 164c33 0 40-30 41-66 1-37-9-64-41-64s-38 30-39 65c0 43 13 65 39 65" id="bO"/><g id="H"><use transform="matrix(0.02469135802469136,0,0,0.02469135802469136,0,0)" xlink:href="#bK"/><use transform="matrix(0.02469135802469136,0,0,0.02469135802469136,4.938271604938272,0)" xlink:href="#bN"/><use transform="matrix(0.02469135802469136,0,0,0.02469135802469136,10.34567901234568,0)" xlink:href="#bO"/></g><path fill="#333" d="M25 0v-261h50V0H25" id="bP"/><g id="I"><use transform="matrix(0.02469135802469136,0,0,0.02469135802469136,0,0)" xlink:href="#bE"/><use transform="matrix(0.02469135802469136,0,0,0.02469135802469136,5.432098765432099,0)" xlink:href="#bK"/><use transform="matrix(0.02469135802469136,0,0,0.02469135802469136,10.37037037037037,0)" xlink:href="#bP"/><use transform="matrix(0.02469135802469136,0,0,0.02469135802469136,12.839506172839508,0)" xlink:href="#bH"/><use transform="matrix(0.02469135802469136,0,0,0.02469135802469136,15.308641975308642,0)" xlink:href="#bO"/><use transform="matrix(0.02469135802469136,0,0,0.02469135802469136,20.71604938271605,0)" xlink:href="#bK"/><use transform="matrix(0.02469135802469136,0,0,0.02469135802469136,25.654320987654323,0)" xlink:href="#bL"/><use transform="matrix(0.02469135802469136,0,0,0.02469135802469136,28.592592592592595,0)" xlink:href="#bH"/><use transform="matrix(0.02469135802469136,0,0,0.02469135802469136,31.06172839506173,0)" xlink:href="#bM"/><use transform="matrix(0.02469135802469136,0,0,0.02469135802469136,36.46913580246914,0)" xlink:href="#bN"/></g><path fill="#333" d="M240-174c0 40-23 61-54 70L253 0h-59l-57-94H76V0H24v-248c93 4 217-23 216 74zM76-134c48-2 112 12 112-38 0-48-66-32-112-35v73" id="bQ"/><path fill="#333" d="M135-194c53 0 70 44 70 98 0 56-19 98-73 100-31 1-45-17-59-34 3 33 2 69 2 105H25l-1-265h48c2 10 0 23 3 31 11-24 29-35 60-35zM114-30c33 0 39-31 40-66 0-38-9-64-40-64-56 0-55 130 0 130" id="bR"/><g id="J"><use transform="matrix(0.02469135802469136,0,0,0.02469135802469136,0,0)" xlink:href="#bQ"/><use transform="matrix(0.02469135802469136,0,0,0.02469135802469136,6.395061728395063,0)" xlink:href="#bF"/><use transform="matrix(0.02469135802469136,0,0,0.02469135802469136,11.333333333333336,0)" xlink:href="#bR"/><use transform="matrix(0.02469135802469136,0,0,0.02469135802469136,16.740740740740744,0)" xlink:href="#bM"/><use transform="matrix(0.02469135802469136,0,0,0.02469135802469136,22.148148148148152,0)" xlink:href="#bG"/><use transform="matrix(0.02469135802469136,0,0,0.02469135802469136,25.604938271604947,0)" xlink:href="#bL"/></g><g id="K"><use transform="matrix(0.01851851851851852,0,0,0.01851851851851852,0,0)" xlink:href="#aU"/><use transform="matrix(0.01851851851851852,0,0,0.01851851851851852,4.055555555555556,0)" xlink:href="#bo"/><use transform="matrix(0.01851851851851852,0,0,0.01851851851851852,7.75925925925926,0)" xlink:href="#bc"/></g><g id="L"><use transform="matrix(0.01851851851851852,0,0,0.01851851851851852,0,0)" xlink:href="#aX"/><use transform="matrix(0.01851851851851852,0,0,0.01851851851851852,3.703703703703704,0)" xlink:href="#bg"/><use transform="matrix(0.01851851851851852,0,0,0.01851851851851852,5.166666666666667,0)" xlink:href="#bg"/></g><g id="M"><use transform="matrix(0.01851851851851852,0,0,0.01851851851851852,0,0)" xlink:href="#bq"/><use transform="matrix(0.01851851851851852,0,0,0.01851851851851852,3.703703703703704,0)" xlink:href="#aZ"/><use transform="matrix(0.01851851851851852,0,0,0.01851851851851852,7.407407407407408,0)" xlink:href="#bo"/><use transform="matrix(0.01851851851851852,0,0,0.01851851851851852,11.111111111111112,0)" xlink:href="#bq"/><use transform="matrix(0.01851851851851852,0,0,0.01851851851851852,14.814814814814817,0)" xlink:href="#bg"/><use transform="matrix(0.01851851851851852,0,0,0.01851851851851852,16.27777777777778,0)" xlink:href="#aZ"/></g><g id="N"><use transform="matrix(0.01851851851851852,0,0,0.01851851851851852,0,0)" xlink:href="#aV"/><use transform="matrix(0.01851851851851852,0,0,0.01851851851851852,1.4629629629629632,0)" xlink:href="#aW"/></g><g id="O"><use transform="matrix(0.01851851851851852,0,0,0.01851851851851852,0,0)" xlink:href="#bg"/><use transform="matrix(0.01851851851851852,0,0,0.01851851851851852,1.4629629629629632,0)" xlink:href="#aV"/><use transform="matrix(0.01851851851851852,0,0,0.01851851851851852,2.9259259259259265,0)" xlink:href="#bh"/><use transform="matrix(0.01851851851851852,0,0,0.01851851851851852,6.25925925925926,0)" xlink:href="#bi"/></g><path fill="#333" d="M169-182c-1-43-94-46-97-3 18 66 151 10 154 114 3 95-165 93-204 36-6-8-10-19-12-30l50-8c3 46 112 56 116 5-17-69-150-10-154-114-4-87 153-88 188-35 5 8 8 18 10 28" id="bS"/><path fill="#333" d="M85 4C-2 5 27-109 22-190h50c7 57-23 150 33 157 60-5 35-97 40-157h50l1 190h-47c-2-12 1-28-3-38-12 25-28 42-61 42" id="bT"/><path fill="#333" d="M135-194c52 0 70 43 70 98 0 56-19 99-73 100-30 1-46-15-58-35L72 0H24l1-261h50v104c11-23 29-37 60-37zM114-30c31 0 40-27 40-66 0-37-7-63-39-63s-41 28-41 65c0 36 8 64 40 64" id="bU"/><path fill="#333" d="M220-157c-53 9-28 100-34 157h-49v-107c1-27-5-49-29-50C55-147 81-57 75 0H25l-1-190h47c2 12-1 28 3 38 10-53 101-56 108 0 13-22 24-43 59-42 82 1 51 116 57 194h-49v-107c-1-25-5-48-29-50" id="bV"/><g id="P"><use transform="matrix(0.02469135802469136,0,0,0.02469135802469136,0,0)" xlink:href="#bS"/><use transform="matrix(0.02469135802469136,0,0,0.02469135802469136,5.9259259259259265,0)" xlink:href="#bT"/><use transform="matrix(0.02469135802469136,0,0,0.02469135802469136,11.333333333333334,0)" xlink:href="#bU"/><use transform="matrix(0.02469135802469136,0,0,0.02469135802469136,16.74074074074074,0)" xlink:href="#bV"/><use transform="matrix(0.02469135802469136,0,0,0.02469135802469136,24.641975308641975,0)" xlink:href="#bH"/><use transform="matrix(0.02469135802469136,0,0,0.02469135802469136,27.111111111111114,0)" xlink:href="#bL"/></g><path fill="#333" d="M24-248c93 1 206-16 204 79-1 75-69 88-152 82V0H24v-248zm52 121c47 0 100 7 100-41 0-47-54-39-100-39v80" id="bW"/><path fill="#333" d="M123 10C108 53 80 86 19 72V37c35 8 53-11 59-39L3-190h52l48 148c12-52 28-100 44-148h51" id="bX"/><g id="Q"><use transform="matrix(0.02469135802469136,0,0,0.02469135802469136,0,0)" xlink:href="#bW"/><use transform="matrix(0.02469135802469136,0,0,0.02469135802469136,5.9259259259259265,0)" xlink:href="#bK"/><use transform="matrix(0.02469135802469136,0,0,0.02469135802469136,10.8641975308642,0)" xlink:href="#bX"/></g><path fill="#333" d="M24 0v-248h52v208h133V0H24" id="bY"/><path fill="#333" d="M137-138c1-29-70-34-71-4 15 46 118 7 119 86 1 83-164 76-172 9l43-7c4 19 20 25 44 25 33 8 57-30 24-41C81-84 22-81 20-136c-2-80 154-74 161-7" id="bZ"/><g id="R"><use transform="matrix(0.02469135802469136,0,0,0.02469135802469136,0,0)" xlink:href="#bY"/><use transform="matrix(0.02469135802469136,0,0,0.02469135802469136,5.407407407407407,0)" xlink:href="#bH"/><use transform="matrix(0.02469135802469136,0,0,0.02469135802469136,7.8765432098765435,0)" xlink:href="#bZ"/><use transform="matrix(0.02469135802469136,0,0,0.02469135802469136,12.814814814814817,0)" xlink:href="#bL"/></g><g id="S"><use transform="matrix(0.02469135802469136,0,0,0.02469135802469136,0,0)" xlink:href="#bI"/><use transform="matrix(0.02469135802469136,0,0,0.02469135802469136,2.9382716049382718,0)" xlink:href="#bM"/><use transform="matrix(0.02469135802469136,0,0,0.02469135802469136,8.345679012345679,0)" xlink:href="#bG"/></g><path fill="#333" d="M128 0H69L1-190h53L99-40l48-150h52" id="ca"/><g id="T"><use transform="matrix(0.02469135802469136,0,0,0.02469135802469136,0,0)" xlink:href="#bK"/><use transform="matrix(0.02469135802469136,0,0,0.02469135802469136,4.938271604938272,0)" xlink:href="#bR"/><use transform="matrix(0.02469135802469136,0,0,0.02469135802469136,10.34567901234568,0)" xlink:href="#bR"/><use transform="matrix(0.02469135802469136,0,0,0.02469135802469136,15.753086419753087,0)" xlink:href="#bG"/><use transform="matrix(0.02469135802469136,0,0,0.02469135802469136,19.20987654320988,0)" xlink:href="#bM"/><use transform="matrix(0.02469135802469136,0,0,0.02469135802469136,24.61728395061729,0)" xlink:href="#ca"/><use transform="matrix(0.02469135802469136,0,0,0.02469135802469136,29.555555555555557,0)" xlink:href="#bK"/><use transform="matrix(0.02469135802469136,0,0,0.02469135802469136,34.49382716049384,0)" xlink:href="#bP"/></g><g id="U"><use transform="matrix(0.01851851851851852,0,0,0.01851851851851852,0,0)" xlink:href="#bm"/><use transform="matrix(0.01851851851851852,0,0,0.01851851851851852,4.444444444444445,0)" xlink:href="#bs"/><use transform="matrix(0.01851851851851852,0,0,0.01851851851851852,8.148148148148149,0)" xlink:href="#bo"/><use transform="matrix(0.01851851851851852,0,0,0.01851851851851852,11.851851851851853,0)" xlink:href="#br"/></g><g id="V"><use transform="matrix(0.01851851851851852,0,0,0.01851851851851852,0,0)" xlink:href="#bq"/><use transform="matrix(0.01851851851851852,0,0,0.01851851851851852,3.703703703703704,0)" xlink:href="#aX"/><use transform="matrix(0.01851851851851852,0,0,0.01851851851851852,7.407407407407408,0)" xlink:href="#bt"/><use transform="matrix(0.01851851851851852,0,0,0.01851851851851852,10.740740740740742,0)" xlink:href="#bC"/><use transform="matrix(0.01851851851851852,0,0,0.01851851851851852,16.27777777777778,0)" xlink:href="#aZ"/><use transform="matrix(0.01851851851851852,0,0,0.01851851851851852,19.98148148148148,0)" xlink:href="#aW"/><use transform="matrix(0.01851851851851852,0,0,0.01851851851851852,23.685185185185183,0)" xlink:href="#bi"/></g><g id="W"><use transform="matrix(0.01851851851851852,0,0,0.01851851851851852,0,0)" xlink:href="#bg"/><use transform="matrix(0.01851851851851852,0,0,0.01851851851851852,1.4629629629629632,0)" xlink:href="#aV"/><use transform="matrix(0.01851851851851852,0,0,0.01851851851851852,2.9259259259259265,0)" xlink:href="#bh"/><use transform="matrix(0.01851851851851852,0,0,0.01851851851851852,6.25925925925926,0)" xlink:href="#bi"/></g><g id="X"><use transform="matrix(0.01851851851851852,0,0,0.01851851851851852,0,0)" xlink:href="#bq"/><use transform="matrix(0.01851851851851852,0,0,0.01851851851851852,3.703703703703704,0)" xlink:href="#aZ"/><use transform="matrix(0.01851851851851852,0,0,0.01851851851851852,7.407407407407408,0)" xlink:href="#aW"/><use transform="matrix(0.01851851851851852,0,0,0.01851851851851852,11.111111111111112,0)" xlink:href="#bB"/><use transform="matrix(0.01851851851851852,0,0,0.01851851851851852,14.814814814814817,0)" xlink:href="#aV"/><use transform="matrix(0.01851851851851852,0,0,0.01851851851851852,16.27777777777778,0)" xlink:href="#aW"/><use transform="matrix(0.01851851851851852,0,0,0.01851851851851852,19.98148148148148,0)" xlink:href="#bb"/></g><g id="Y"><use transform="matrix(0.01851851851851852,0,0,0.01851851851851852,0,0)" xlink:href="#aX"/><use transform="matrix(0.01851851851851852,0,0,0.01851851851851852,3.703703703703704,0)" xlink:href="#bq"/><use transform="matrix(0.01851851851851852,0,0,0.01851851851851852,7.407407407407408,0)" xlink:href="#bq"/><use transform="matrix(0.01851851851851852,0,0,0.01851851851851852,11.111111111111112,0)" xlink:href="#bc"/><use transform="matrix(0.01851851851851852,0,0,0.01851851851851852,13.314814814814817,0)" xlink:href="#bo"/><use transform="matrix(0.01851851851851852,0,0,0.01851851851851852,17.01851851851852,0)" xlink:href="#bD"/><use transform="matrix(0.01851851851851852,0,0,0.01851851851851852,20.351851851851855,0)" xlink:href="#aX"/><use transform="matrix(0.01851851851851852,0,0,0.01851851851851852,24.055555555555557,0)" xlink:href="#bg"/></g><path fill="#333" d="M24 0v-248h52V0H24" id="cb"/><g id="Z"><use transform="matrix(0.02469135802469136,0,0,0.02469135802469136,0,0)" xlink:href="#cb"/><use transform="matrix(0.02469135802469136,0,0,0.02469135802469136,2.469135802469136,0)" xlink:href="#bN"/><use transform="matrix(0.02469135802469136,0,0,0.02469135802469136,7.8765432098765435,0)" xlink:href="#bI"/><use transform="matrix(0.02469135802469136,0,0,0.02469135802469136,10.814814814814815,0)" xlink:href="#bM"/><use transform="matrix(0.02469135802469136,0,0,0.02469135802469136,16.22222222222222,0)" xlink:href="#bG"/><use transform="matrix(0.02469135802469136,0,0,0.02469135802469136,19.679012345679013,0)" xlink:href="#bV"/></g><g id="aa"><use transform="matrix(0.02469135802469136,0,0,0.02469135802469136,0,0)" xlink:href="#bI"/><use transform="matrix(0.02469135802469136,0,0,0.02469135802469136,2.9382716049382718,0)" xlink:href="#bH"/><use transform="matrix(0.02469135802469136,0,0,0.02469135802469136,5.407407407407408,0)" xlink:href="#bN"/><use transform="matrix(0.02469135802469136,0,0,0.02469135802469136,10.814814814814817,0)" xlink:href="#bK"/><use transform="matrix(0.02469135802469136,0,0,0.02469135802469136,15.753086419753087,0)" xlink:href="#bN"/><use transform="matrix(0.02469135802469136,0,0,0.02469135802469136,21.160493827160497,0)" xlink:href="#bJ"/><use transform="matrix(0.02469135802469136,0,0,0.02469135802469136,26.09876543209877,0)" xlink:href="#bF"/></g><path fill="#333" d="M195-6C206 82 75 100 31 46c-4-6-6-13-8-21l49-6c3 16 16 24 34 25 40 0 42-37 40-79-11 22-30 35-61 35-53 0-70-43-70-97 0-56 18-96 73-97 30 0 46 14 59 34l2-30h47zm-90-29c32 0 41-27 41-63 0-35-9-62-40-62-32 0-39 29-40 63 0 36 9 62 39 62" id="cc"/><g id="ab"><use transform="matrix(0.02469135802469136,0,0,0.02469135802469136,0,0)" xlink:href="#bV"/><use transform="matrix(0.02469135802469136,0,0,0.02469135802469136,7.901234567901235,0)" xlink:href="#bK"/><use transform="matrix(0.02469135802469136,0,0,0.02469135802469136,12.839506172839508,0)" xlink:href="#bN"/><use transform="matrix(0.02469135802469136,0,0,0.02469135802469136,18.246913580246915,0)" xlink:href="#bK"/><use transform="matrix(0.02469135802469136,0,0,0.02469135802469136,23.185185185185187,0)" xlink:href="#cc"/><use transform="matrix(0.02469135802469136,0,0,0.02469135802469136,28.592592592592595,0)" xlink:href="#bF"/><use transform="matrix(0.02469135802469136,0,0,0.02469135802469136,33.53086419753087,0)" xlink:href="#bG"/></g><g id="ac"><use transform="matrix(0.02469135802469136,0,0,0.02469135802469136,0,0)" xlink:href="#bL"/><use transform="matrix(0.02469135802469136,0,0,0.02469135802469136,2.9382716049382718,0)" xlink:href="#bM"/></g><g id="ad"><use transform="matrix(0.02469135802469136,0,0,0.02469135802469136,0,0)" xlink:href="#bK"/><use transform="matrix(0.02469135802469136,0,0,0.02469135802469136,4.938271604938272,0)" xlink:href="#bR"/><use transform="matrix(0.02469135802469136,0,0,0.02469135802469136,10.34567901234568,0)" xlink:href="#bR"/><use transform="matrix(0.02469135802469136,0,0,0.02469135802469136,15.753086419753087,0)" xlink:href="#bG"/><use transform="matrix(0.02469135802469136,0,0,0.02469135802469136,19.20987654320988,0)" xlink:href="#bM"/><use transform="matrix(0.02469135802469136,0,0,0.02469135802469136,24.61728395061729,0)" xlink:href="#ca"/><use transform="matrix(0.02469135802469136,0,0,0.02469135802469136,29.555555555555557,0)" xlink:href="#bF"/></g><path fill="#333" d="M231 0h-52l-39-155L100 0H48L-1-190h46L77-45c9-52 24-97 36-145h53l37 145 32-145h46" id="cd"/><g id="ae"><use transform="matrix(0.02469135802469136,0,0,0.02469135802469136,0,0)" xlink:href="#bG"/><use transform="matrix(0.02469135802469136,0,0,0.02469135802469136,3.4567901234567904,0)" xlink:href="#bF"/><use transform="matrix(0.02469135802469136,0,0,0.02469135802469136,8.395061728395063,0)" xlink:href="#ca"/><use transform="matrix(0.02469135802469136,0,0,0.02469135802469136,13.333333333333334,0)" xlink:href="#bH"/><use transform="matrix(0.02469135802469136,0,0,0.02469135802469136,15.80246913580247,0)" xlink:href="#bF"/><use transform="matrix(0.02469135802469136,0,0,0.02469135802469136,20.740740740740744,0)" xlink:href="#cd"/></g><g id="af"><use transform="matrix(0.02469135802469136,0,0,0.02469135802469136,0,0)" xlink:href="#bK"/><use transform="matrix(0.02469135802469136,0,0,0.02469135802469136,4.938271604938272,0)" xlink:href="#bR"/><use transform="matrix(0.02469135802469136,0,0,0.02469135802469136,10.34567901234568,0)" xlink:href="#bR"/><use transform="matrix(0.02469135802469136,0,0,0.02469135802469136,15.753086419753087,0)" xlink:href="#bG"/><use transform="matrix(0.02469135802469136,0,0,0.02469135802469136,19.20987654320988,0)" xlink:href="#bM"/><use transform="matrix(0.02469135802469136,0,0,0.02469135802469136,24.61728395061729,0)" xlink:href="#ca"/><use transform="matrix(0.02469135802469136,0,0,0.02469135802469136,29.555555555555557,0)" xlink:href="#bF"/></g><g id="ag"><use transform="matrix(0.02469135802469136,0,0,0.02469135802469136,0,0)" xlink:href="#bP"/><use transform="matrix(0.02469135802469136,0,0,0.02469135802469136,2.469135802469136,0)" xlink:href="#bH"/><use transform="matrix(0.02469135802469136,0,0,0.02469135802469136,4.938271604938272,0)" xlink:href="#bZ"/><use transform="matrix(0.02469135802469136,0,0,0.02469135802469136,9.876543209876544,0)" xlink:href="#bL"/></g><path fill="#333" d="M175 0L67-191c6 58 2 128 3 191H24v-248h59L193-55c-6-58-2-129-3-193h46V0h-61" id="ce"/><g id="ah"><use transform="matrix(0.02469135802469136,0,0,0.02469135802469136,0,0)" xlink:href="#ce"/><use transform="matrix(0.02469135802469136,0,0,0.02469135802469136,6.395061728395063,0)" xlink:href="#bM"/><use transform="matrix(0.02469135802469136,0,0,0.02469135802469136,11.80246913580247,0)" xlink:href="#bL"/><use transform="matrix(0.02469135802469136,0,0,0.02469135802469136,14.740740740740742,0)" xlink:href="#bH"/><use transform="matrix(0.02469135802469136,0,0,0.02469135802469136,17.20987654320988,0)" xlink:href="#bI"/><use transform="matrix(0.02469135802469136,0,0,0.02469135802469136,20.148148148148152,0)" xlink:href="#bX"/></g><g id="ai"><use transform="matrix(0.02469135802469136,0,0,0.02469135802469136,0,0)" xlink:href="#bM"/><use transform="matrix(0.02469135802469136,0,0,0.02469135802469136,5.407407407407407,0)" xlink:href="#bI"/><use transform="matrix(0.02469135802469136,0,0,0.02469135802469136,8.345679012345679,0)" xlink:href="#bI"/><use transform="matrix(0.02469135802469136,0,0,0.02469135802469136,11.283950617283951,0)" xlink:href="#bH"/><use transform="matrix(0.02469135802469136,0,0,0.02469135802469136,13.753086419753087,0)" xlink:href="#bJ"/><use transform="matrix(0.02469135802469136,0,0,0.02469135802469136,18.69135802469136,0)" xlink:href="#bF"/><use transform="matrix(0.02469135802469136,0,0,0.02469135802469136,23.629629629629633,0)" xlink:href="#bG"/></g><path fill="#333" d="M24 0v-248h195v40H76v63h132v40H76v65h150V0H24" id="cf"/><path fill="#333" d="M144 0l-44-69L55 0H2l70-98-66-92h53l41 62 40-62h54l-67 91 71 99h-54" id="cg"/><g id="aj"><use transform="matrix(0.02469135802469136,0,0,0.02469135802469136,0,0)" xlink:href="#cf"/><use transform="matrix(0.02469135802469136,0,0,0.02469135802469136,5.9259259259259265,0)" xlink:href="#cg"/><use transform="matrix(0.02469135802469136,0,0,0.02469135802469136,10.8641975308642,0)" xlink:href="#bF"/><use transform="matrix(0.02469135802469136,0,0,0.02469135802469136,15.80246913580247,0)" xlink:href="#bJ"/><use transform="matrix(0.02469135802469136,0,0,0.02469135802469136,20.740740740740744,0)" xlink:href="#bT"/><use transform="matrix(0.02469135802469136,0,0,0.02469135802469136,26.14814814814815,0)" xlink:href="#bL"/><use transform="matrix(0.02469135802469136,0,0,0.02469135802469136,29.08641975308642,0)" xlink:href="#bF"/></g><g id="ak"><use transform="matrix(0.02469135802469136,0,0,0.02469135802469136,0,0)" xlink:href="#bW"/><use transform="matrix(0.02469135802469136,0,0,0.02469135802469136,5.9259259259259265,0)" xlink:href="#bK"/><use transform="matrix(0.02469135802469136,0,0,0.02469135802469136,10.8641975308642,0)" xlink:href="#bX"/><use transform="matrix(0.02469135802469136,0,0,0.02469135802469136,15.80246913580247,0)" xlink:href="#bV"/><use transform="matrix(0.02469135802469136,0,0,0.02469135802469136,23.703703703703706,0)" xlink:href="#bF"/><use transform="matrix(0.02469135802469136,0,0,0.02469135802469136,28.641975308641978,0)" xlink:href="#bN"/><use transform="matrix(0.02469135802469136,0,0,0.02469135802469136,34.04938271604939,0)" xlink:href="#bL"/></g><path fill="#333" d="M199 0l-22-63H83L61 0H9l90-248h61L250 0h-51zm-33-102l-36-108c-10 38-24 72-36 108h72" id="ch"/><g id="al"><use transform="matrix(0.02469135802469136,0,0,0.02469135802469136,0,0)" xlink:href="#ch"/><use transform="matrix(0.02469135802469136,0,0,0.02469135802469136,6.395061728395063,0)" xlink:href="#bJ"/><use transform="matrix(0.02469135802469136,0,0,0.02469135802469136,11.333333333333336,0)" xlink:href="#bJ"/><use transform="matrix(0.02469135802469136,0,0,0.02469135802469136,16.271604938271608,0)" xlink:href="#bM"/><use transform="matrix(0.02469135802469136,0,0,0.02469135802469136,21.679012345679016,0)" xlink:href="#bT"/><use transform="matrix(0.02469135802469136,0,0,0.02469135802469136,27.08641975308642,0)" xlink:href="#bN"/><use transform="matrix(0.02469135802469136,0,0,0.02469135802469136,32.49382716049383,0)" xlink:href="#bL"/></g><path fill="#333" d="M147 0L96-86 75-71V0H25v-261h50v150l67-79h53l-66 74L201 0h-54" id="ci"/><g id="am"><use transform="matrix(0.02469135802469136,0,0,0.02469135802469136,0,0)" xlink:href="#bP"/><use transform="matrix(0.02469135802469136,0,0,0.02469135802469136,2.469135802469136,0)" xlink:href="#bM"/><use transform="matrix(0.02469135802469136,0,0,0.02469135802469136,7.8765432098765435,0)" xlink:href="#bM"/><use transform="matrix(0.02469135802469136,0,0,0.02469135802469136,13.283950617283951,0)" xlink:href="#ci"/><use transform="matrix(0.02469135802469136,0,0,0.02469135802469136,18.22222222222222,0)" xlink:href="#bT"/><use transform="matrix(0.02469135802469136,0,0,0.02469135802469136,23.62962962962963,0)" xlink:href="#bR"/></g><path fill="#333" d="M114-157C55-157 80-60 75 0H25v-261h50l-1 109c12-26 28-41 61-42 86-1 58 113 63 194h-50c-7-57 23-157-34-157" id="cj"/><g id="an"><use transform="matrix(0.02469135802469136,0,0,0.02469135802469136,0,0)" xlink:href="#cd"/><use transform="matrix(0.02469135802469136,0,0,0.02469135802469136,6.913580246913581,0)" xlink:href="#bH"/><use transform="matrix(0.02469135802469136,0,0,0.02469135802469136,9.382716049382717,0)" xlink:href="#bL"/><use transform="matrix(0.02469135802469136,0,0,0.02469135802469136,12.320987654320989,0)" xlink:href="#cj"/></g><path fill="#333" d="M24-248c120-7 223 5 221 122C244-46 201 0 124 0H24v-248zM76-40c74 7 117-18 117-86 0-67-45-88-117-82v168" id="ck"/><path fill="#333" d="M76-208v77h127v40H76V0H24v-248h183v40H76" id="cl"/><g id="ao"><use transform="matrix(0.02469135802469136,0,0,0.02469135802469136,0,0)" xlink:href="#ck"/><use transform="matrix(0.02469135802469136,0,0,0.02469135802469136,6.395061728395063,0)" xlink:href="#cl"/><use transform="matrix(0.02469135802469136,0,0,0.02469135802469136,11.80246913580247,0)" xlink:href="#bS"/><use transform="matrix(0.02469135802469136,0,0,0.02469135802469136,17.728395061728396,0)" xlink:href="#bW"/><use transform="matrix(0.02469135802469136,0,0,0.02469135802469136,23.654320987654323,0)" xlink:href="#bZ"/></g><g id="ap"><use transform="matrix(0.01851851851851852,0,0,0.01851851851851852,0,0)" xlink:href="#aV"/><use transform="matrix(0.01851851851851852,0,0,0.01851851851851852,1.4629629629629632,0)" xlink:href="#aW"/></g><use transform="matrix(0.01851851851851852,0,0,0.01851851851851852,0,0)" xlink:href="#aX" id="aq"/><g id="ar"><use transform="matrix(0.01851851851851852,0,0,0.01851851851851852,0,0)" xlink:href="#bg"/><use transform="matrix(0.01851851851851852,0,0,0.01851851851851852,1.4629629629629632,0)" xlink:href="#bo"/><use transform="matrix(0.01851851851851852,0,0,0.01851851851851852,5.166666666666667,0)" xlink:href="#bo"/><use transform="matrix(0.01851851851851852,0,0,0.01851851851851852,8.870370370370372,0)" xlink:href="#bq"/></g><g id="as"><use transform="matrix(0.01851851851851852,0,0,0.01851851851851852,0,0)" xlink:href="#be"/><use transform="matrix(0.01851851851851852,0,0,0.01851851851851852,1.851851851851852,0)" xlink:href="#bo"/><use transform="matrix(0.01851851851851852,0,0,0.01851851851851852,5.555555555555556,0)" xlink:href="#bc"/></g><g id="at"><use transform="matrix(0.01851851851851852,0,0,0.01851851851851852,0,0)" xlink:href="#aX"/><use transform="matrix(0.01851851851851852,0,0,0.01851851851851852,3.703703703703704,0)" xlink:href="#aY"/><use transform="matrix(0.01851851851851852,0,0,0.01851851851851852,7.037037037037038,0)" xlink:href="#aY"/><use transform="matrix(0.01851851851851852,0,0,0.01851851851851852,10.370370370370372,0)" xlink:href="#bo"/><use transform="matrix(0.01851851851851852,0,0,0.01851851851851852,14.074074074074076,0)" xlink:href="#bx"/><use transform="matrix(0.01851851851851852,0,0,0.01851851851851852,17.77777777777778,0)" xlink:href="#aW"/><use transform="matrix(0.01851851851851852,0,0,0.01851851851851852,21.48148148148148,0)" xlink:href="#bi"/><use transform="matrix(0.01851851851851852,0,0,0.01851851851851852,23.333333333333332,0)" xlink:href="#bh"/></g><g id="au"><use transform="matrix(0.04938271604938272,0,0,0.04938271604938272,0,0)" xlink:href="#bk"/><use transform="matrix(0.04938271604938272,0,0,0.04938271604938272,11.851851851851853,0)" xlink:href="#aX"/><use transform="matrix(0.04938271604938272,0,0,0.04938271604938272,21.7283950617284,0)" xlink:href="#bt"/><use transform="matrix(0.04938271604938272,0,0,0.04938271604938272,30.617283950617285,0)" xlink:href="#aZ"/><use transform="matrix(0.04938271604938272,0,0,0.04938271604938272,40.49382716049384,0)" xlink:href="#bc"/></g><g id="av"><use transform="matrix(0.04938271604938272,0,0,0.04938271604938272,0,0)" xlink:href="#bu"/><use transform="matrix(0.04938271604938272,0,0,0.04938271604938272,12.790123456790125,0)" xlink:href="#aU"/><use transform="matrix(0.04938271604938272,0,0,0.04938271604938272,23.60493827160494,0)" xlink:href="#bm"/><use transform="matrix(0.04938271604938272,0,0,0.04938271604938272,35.45679012345679,0)" xlink:href="#bk"/></g><g id="aw"><use transform="matrix(0.030864197530864196,0,0,0.030864197530864196,0,0)" xlink:href="#cb"/><use transform="matrix(0.030864197530864196,0,0,0.030864197530864196,3.0864197530864197,0)" xlink:href="#bN"/><use transform="matrix(0.030864197530864196,0,0,0.030864197530864196,9.845679012345679,0)" xlink:href="#bH"/><use transform="matrix(0.030864197530864196,0,0,0.030864197530864196,12.932098765432098,0)" xlink:href="#bL"/><use transform="matrix(0.030864197530864196,0,0,0.030864197530864196,16.604938271604937,0)" xlink:href="#bH"/><use transform="matrix(0.030864197530864196,0,0,0.030864197530864196,19.691358024691358,0)" xlink:href="#bK"/><use transform="matrix(0.030864197530864196,0,0,0.030864197530864196,25.864197530864196,0)" xlink:href="#bL"/><use transform="matrix(0.030864197530864196,0,0,0.030864197530864196,29.537037037037035,0)" xlink:href="#bF"/></g><g id="ax"><use transform="matrix(0.030864197530864196,0,0,0.030864197530864196,0,0)" xlink:href="#bW"/><use transform="matrix(0.030864197530864196,0,0,0.030864197530864196,7.4074074074074066,0)" xlink:href="#bK"/><use transform="matrix(0.030864197530864196,0,0,0.030864197530864196,13.580246913580247,0)" xlink:href="#bX"/><use transform="matrix(0.030864197530864196,0,0,0.030864197530864196,19.753086419753085,0)" xlink:href="#bV"/><use transform="matrix(0.030864197530864196,0,0,0.030864197530864196,29.629629629629626,0)" xlink:href="#bF"/><use transform="matrix(0.030864197530864196,0,0,0.030864197530864196,35.80246913580247,0)" xlink:href="#bN"/><use transform="matrix(0.030864197530864196,0,0,0.030864197530864196,42.56172839506173,0)" xlink:href="#bL"/></g><path fill="#333" d="M12 0v-35l95-120H19v-35h142v35L67-36h103V0H12" id="cm"/><g id="ay"><use transform="matrix(0.02469135802469136,0,0,0.02469135802469136,0,0)" xlink:href="#ch"/><use transform="matrix(0.02469135802469136,0,0,0.02469135802469136,6.395061728395063,0)" xlink:href="#bT"/><use transform="matrix(0.02469135802469136,0,0,0.02469135802469136,11.80246913580247,0)" xlink:href="#bL"/><use transform="matrix(0.02469135802469136,0,0,0.02469135802469136,14.740740740740742,0)" xlink:href="#cj"/><use transform="matrix(0.02469135802469136,0,0,0.02469135802469136,20.14814814814815,0)" xlink:href="#bM"/><use transform="matrix(0.02469135802469136,0,0,0.02469135802469136,25.555555555555557,0)" xlink:href="#bG"/><use transform="matrix(0.02469135802469136,0,0,0.02469135802469136,29.01234567901235,0)" xlink:href="#bH"/><use transform="matrix(0.02469135802469136,0,0,0.02469135802469136,31.481481481481485,0)" xlink:href="#cm"/><use transform="matrix(0.02469135802469136,0,0,0.02469135802469136,35.92592592592593,0)" xlink:href="#bK"/><use transform="matrix(0.02469135802469136,0,0,0.02469135802469136,40.8641975308642,0)" xlink:href="#bL"/><use transform="matrix(0.02469135802469136,0,0,0.02469135802469136,43.802469135802475,0)" xlink:href="#bH"/><use transform="matrix(0.02469135802469136,0,0,0.02469135802469136,46.27160493827161,0)" xlink:href="#bM"/><use transform="matrix(0.02469135802469136,0,0,0.02469135802469136,51.67901234567902,0)" xlink:href="#bN"/></g><g id="az"><use transform="matrix(0.02469135802469136,0,0,0.02469135802469136,0,0)" xlink:href="#bG"/><use transform="matrix(0.02469135802469136,0,0,0.02469135802469136,3.4567901234567904,0)" xlink:href="#bF"/><use transform="matrix(0.02469135802469136,0,0,0.02469135802469136,8.395061728395063,0)" xlink:href="#bJ"/><use transform="matrix(0.02469135802469136,0,0,0.02469135802469136,13.333333333333334,0)" xlink:href="#bF"/><use transform="matrix(0.02469135802469136,0,0,0.02469135802469136,18.271604938271608,0)" xlink:href="#bH"/><use transform="matrix(0.02469135802469136,0,0,0.02469135802469136,20.740740740740744,0)" xlink:href="#ca"/><use transform="matrix(0.02469135802469136,0,0,0.02469135802469136,25.679012345679016,0)" xlink:href="#bF"/><use transform="matrix(0.02469135802469136,0,0,0.02469135802469136,30.617283950617285,0)" xlink:href="#bO"/></g><g id="aA"><use transform="matrix(0.02469135802469136,0,0,0.02469135802469136,0,0)" xlink:href="#ch"/><use transform="matrix(0.02469135802469136,0,0,0.02469135802469136,6.395061728395063,0)" xlink:href="#bR"/><use transform="matrix(0.02469135802469136,0,0,0.02469135802469136,11.80246913580247,0)" xlink:href="#bR"/><use transform="matrix(0.02469135802469136,0,0,0.02469135802469136,17.209876543209877,0)" xlink:href="#bG"/><use transform="matrix(0.02469135802469136,0,0,0.02469135802469136,20.666666666666668,0)" xlink:href="#bM"/><use transform="matrix(0.02469135802469136,0,0,0.02469135802469136,26.074074074074076,0)" xlink:href="#ca"/><use transform="matrix(0.02469135802469136,0,0,0.02469135802469136,31.01234567901235,0)" xlink:href="#bF"/></g><g id="aB"><use transform="matrix(0.030864197530864196,0,0,0.030864197530864196,0,0)" xlink:href="#ba"/><use transform="matrix(0.030864197530864196,0,0,0.030864197530864196,9.228395061728394,0)" xlink:href="#bo"/><use transform="matrix(0.030864197530864196,0,0,0.030864197530864196,15.401234567901234,0)" xlink:href="#bp"/><use transform="matrix(0.030864197530864196,0,0,0.030864197530864196,17.839506172839506,0)" xlink:href="#aX"/><use transform="matrix(0.030864197530864196,0,0,0.030864197530864196,24.012345679012345,0)" xlink:href="#bg"/><use transform="matrix(0.030864197530864196,0,0,0.030864197530864196,26.450617283950617,0)" xlink:href="#bo"/><use transform="matrix(0.030864197530864196,0,0,0.030864197530864196,32.623456790123456,0)" xlink:href="#bo"/><use transform="matrix(0.030864197530864196,0,0,0.030864197530864196,38.7962962962963,0)" xlink:href="#bq"/></g><g id="aC"><use transform="matrix(0.030864197530864196,0,0,0.030864197530864196,0,0)" xlink:href="#bi"/><use transform="matrix(0.030864197530864196,0,0,0.030864197530864196,3.0864197530864197,0)" xlink:href="#bs"/><use transform="matrix(0.030864197530864196,0,0,0.030864197530864196,9.25925925925926,0)" xlink:href="#aV"/><use transform="matrix(0.030864197530864196,0,0,0.030864197530864196,11.697530864197532,0)" xlink:href="#aW"/><use transform="matrix(0.030864197530864196,0,0,0.030864197530864196,17.87037037037037,0)" xlink:href="#bA"/><use transform="matrix(0.030864197530864196,0,0,0.030864197530864196,23.425925925925924,0)" xlink:href="#bh"/></g><path fill="#333" d="M136-208V0H84v-208H4v-40h212v40h-80" id="cn"/><g id="aD"><use transform="matrix(0.02469135802469136,0,0,0.02469135802469136,0,0)" xlink:href="#cn"/><use transform="matrix(0.02469135802469136,0,0,0.02469135802469136,4.91358024691358,0)" xlink:href="#bG"/><use transform="matrix(0.02469135802469136,0,0,0.02469135802469136,8.37037037037037,0)" xlink:href="#bK"/><use transform="matrix(0.02469135802469136,0,0,0.02469135802469136,13.308641975308642,0)" xlink:href="#bN"/><use transform="matrix(0.02469135802469136,0,0,0.02469135802469136,18.71604938271605,0)" xlink:href="#bZ"/><use transform="matrix(0.02469135802469136,0,0,0.02469135802469136,23.654320987654323,0)" xlink:href="#bI"/><use transform="matrix(0.02469135802469136,0,0,0.02469135802469136,26.592592592592595,0)" xlink:href="#bF"/><use transform="matrix(0.02469135802469136,0,0,0.02469135802469136,31.530864197530867,0)" xlink:href="#bG"/></g><path fill="#333" d="M84 4C32 4 15-41 15-95c0-55 18-99 73-99 29 0 47 12 58 34l2-30h48l-1 265h-49V-32C136-9 114 4 84 4zm21-34c32 0 41-29 41-66 0-36-9-64-40-64-33 0-39 30-40 65 0 43 13 65 39 65" id="co"/><g id="aE"><use transform="matrix(0.02469135802469136,0,0,0.02469135802469136,0,0)" xlink:href="#bG"/><use transform="matrix(0.02469135802469136,0,0,0.02469135802469136,3.4567901234567904,0)" xlink:href="#bF"/><use transform="matrix(0.02469135802469136,0,0,0.02469135802469136,8.395061728395063,0)" xlink:href="#co"/><use transform="matrix(0.02469135802469136,0,0,0.02469135802469136,13.802469135802474,0)" xlink:href="#bT"/><use transform="matrix(0.02469135802469136,0,0,0.02469135802469136,19.20987654320988,0)" xlink:href="#bF"/><use transform="matrix(0.02469135802469136,0,0,0.02469135802469136,24.148148148148152,0)" xlink:href="#bZ"/><use transform="matrix(0.02469135802469136,0,0,0.02469135802469136,29.08641975308642,0)" xlink:href="#bL"/></g><g id="aF"><use transform="matrix(0.02469135802469136,0,0,0.02469135802469136,0,0)" xlink:href="#ck"/><use transform="matrix(0.02469135802469136,0,0,0.02469135802469136,6.395061728395063,0)" xlink:href="#cl"/><use transform="matrix(0.02469135802469136,0,0,0.02469135802469136,11.80246913580247,0)" xlink:href="#bS"/><use transform="matrix(0.02469135802469136,0,0,0.02469135802469136,17.728395061728396,0)" xlink:href="#bW"/></g><use transform="matrix(0.02469135802469136,0,0,0.02469135802469136,0,0)" xlink:href="#bN" id="aG"/><g id="aH"><use transform="matrix(0.02469135802469136,0,0,0.02469135802469136,0,0)" xlink:href="#bI"/><use transform="matrix(0.02469135802469136,0,0,0.02469135802469136,2.9382716049382718,0)" xlink:href="#bT"/><use transform="matrix(0.02469135802469136,0,0,0.02469135802469136,8.345679012345679,0)" xlink:href="#bN"/><use transform="matrix(0.02469135802469136,0,0,0.02469135802469136,13.753086419753085,0)" xlink:href="#bO"/><use transform="matrix(0.02469135802469136,0,0,0.02469135802469136,19.160493827160494,0)" xlink:href="#bZ"/></g><g id="aI"><use transform="matrix(0.02469135802469136,0,0,0.02469135802469136,0,0)" xlink:href="#bO"/><use transform="matrix(0.02469135802469136,0,0,0.02469135802469136,5.407407407407407,0)" xlink:href="#bM"/><use transform="matrix(0.02469135802469136,0,0,0.02469135802469136,10.814814814814815,0)" xlink:href="#bN"/><use transform="matrix(0.02469135802469136,0,0,0.02469135802469136,16.22222222222222,0)" xlink:href="#bF"/></g><path fill="#333" d="M67-125c0 53 21 87 73 88 37 1 54-22 65-47l45 17C233-25 199 4 140 4 58 4 20-42 15-125 8-235 124-281 211-232c18 10 29 29 36 50l-46 12c-8-25-30-41-62-41-52 0-71 34-72 86" id="cp"/><g id="aJ"><use transform="matrix(0.02469135802469136,0,0,0.02469135802469136,0,0)" xlink:href="#cp"/><use transform="matrix(0.02469135802469136,0,0,0.02469135802469136,6.395061728395063,0)" xlink:href="#bM"/><use transform="matrix(0.02469135802469136,0,0,0.02469135802469136,11.80246913580247,0)" xlink:href="#bV"/><use transform="matrix(0.02469135802469136,0,0,0.02469135802469136,19.703703703703706,0)" xlink:href="#bR"/><use transform="matrix(0.02469135802469136,0,0,0.02469135802469136,25.111111111111114,0)" xlink:href="#bP"/><use transform="matrix(0.02469135802469136,0,0,0.02469135802469136,27.58024691358025,0)" xlink:href="#bF"/><use transform="matrix(0.02469135802469136,0,0,0.02469135802469136,32.51851851851852,0)" xlink:href="#bL"/><use transform="matrix(0.02469135802469136,0,0,0.02469135802469136,35.45679012345679,0)" xlink:href="#bF"/></g><g id="aK"><use transform="matrix(0.02469135802469136,0,0,0.02469135802469136,0,0)" xlink:href="#bJ"/><use transform="matrix(0.02469135802469136,0,0,0.02469135802469136,4.938271604938272,0)" xlink:href="#bM"/><use transform="matrix(0.02469135802469136,0,0,0.02469135802469136,10.34567901234568,0)" xlink:href="#bN"/><use transform="matrix(0.02469135802469136,0,0,0.02469135802469136,15.753086419753087,0)" xlink:href="#bI"/><use transform="matrix(0.02469135802469136,0,0,0.02469135802469136,18.69135802469136,0)" xlink:href="#bH"/><use transform="matrix(0.02469135802469136,0,0,0.02469135802469136,21.160493827160497,0)" xlink:href="#bG"/><use transform="matrix(0.02469135802469136,0,0,0.02469135802469136,24.61728395061729,0)" xlink:href="#bV"/><use transform="matrix(0.02469135802469136,0,0,0.02469135802469136,32.518518518518526,0)" xlink:href="#bK"/><use transform="matrix(0.02469135802469136,0,0,0.02469135802469136,37.4567901234568,0)" xlink:href="#bL"/><use transform="matrix(0.02469135802469136,0,0,0.02469135802469136,40.39506172839507,0)" xlink:href="#bH"/><use transform="matrix(0.02469135802469136,0,0,0.02469135802469136,42.8641975308642,0)" xlink:href="#bM"/><use transform="matrix(0.02469135802469136,0,0,0.02469135802469136,48.27160493827161,0)" xlink:href="#bN"/></g><path fill="#333" d="M230 0l2-204L168 0h-37L68-204 70 0H24v-248h70l56 185 57-185h69V0h-46" id="cq"/><g id="aL"><use transform="matrix(0.02469135802469136,0,0,0.02469135802469136,0,0)" xlink:href="#cq"/><use transform="matrix(0.02469135802469136,0,0,0.02469135802469136,7.382716049382717,0)" xlink:href="#bF"/><use transform="matrix(0.02469135802469136,0,0,0.02469135802469136,12.320987654320989,0)" xlink:href="#bZ"/><use transform="matrix(0.02469135802469136,0,0,0.02469135802469136,17.25925925925926,0)" xlink:href="#bZ"/><use transform="matrix(0.02469135802469136,0,0,0.02469135802469136,22.19753086419753,0)" xlink:href="#bK"/><use transform="matrix(0.02469135802469136,0,0,0.02469135802469136,27.135802469135804,0)" xlink:href="#cc"/><use transform="matrix(0.02469135802469136,0,0,0.02469135802469136,32.54320987654321,0)" xlink:href="#bF"/></g><g id="aM"><use transform="matrix(0.030864197530864196,0,0,0.030864197530864196,0,0)" xlink:href="#bu"/><use transform="matrix(0.030864197530864196,0,0,0.030864197530864196,7.993827160493827,0)" xlink:href="#bo"/><use transform="matrix(0.030864197530864196,0,0,0.030864197530864196,14.166666666666666,0)" xlink:href="#aW"/><use transform="matrix(0.030864197530864196,0,0,0.030864197530864196,20.339506172839506,0)" xlink:href="#aZ"/></g><g id="aN"><use transform="matrix(0.030864197530864196,0,0,0.030864197530864196,0,0)" xlink:href="#aV"/><use transform="matrix(0.030864197530864196,0,0,0.030864197530864196,2.4382716049382713,0)" xlink:href="#aW"/></g><use transform="matrix(0.030864197530864196,0,0,0.030864197530864196,0,0)" xlink:href="#aX" id="aO"/><g id="aP"><use transform="matrix(0.030864197530864196,0,0,0.030864197530864196,0,0)" xlink:href="#bg"/><use transform="matrix(0.030864197530864196,0,0,0.030864197530864196,2.4382716049382713,0)" xlink:href="#bo"/><use transform="matrix(0.030864197530864196,0,0,0.030864197530864196,8.61111111111111,0)" xlink:href="#bo"/><use transform="matrix(0.030864197530864196,0,0,0.030864197530864196,14.78395061728395,0)" xlink:href="#bq"/></g><g id="aQ"><use transform="matrix(0.030864197530864196,0,0,0.030864197530864196,0,0)" xlink:href="#be"/><use transform="matrix(0.030864197530864196,0,0,0.030864197530864196,3.0864197530864197,0)" xlink:href="#bo"/><use transform="matrix(0.030864197530864196,0,0,0.030864197530864196,9.25925925925926,0)" xlink:href="#bc"/></g><g id="aR"><use transform="matrix(0.030864197530864196,0,0,0.030864197530864196,0,0)" xlink:href="#aX"/><use transform="matrix(0.030864197530864196,0,0,0.030864197530864196,6.172839506172839,0)" xlink:href="#bg"/><use transform="matrix(0.030864197530864196,0,0,0.030864197530864196,8.61111111111111,0)" xlink:href="#bg"/></g><g id="aS"><use transform="matrix(0.030864197530864196,0,0,0.030864197530864196,0,0)" xlink:href="#aZ"/><use transform="matrix(0.030864197530864196,0,0,0.030864197530864196,6.172839506172839,0)" xlink:href="#aW"/><use transform="matrix(0.030864197530864196,0,0,0.030864197530864196,12.345679012345679,0)" xlink:href="#bi"/><use transform="matrix(0.030864197530864196,0,0,0.030864197530864196,15.432098765432098,0)" xlink:href="#bc"/><use transform="matrix(0.030864197530864196,0,0,0.030864197530864196,19.104938271604937,0)" xlink:href="#aV"/><use transform="matrix(0.030864197530864196,0,0,0.030864197530864196,21.54320987654321,0)" xlink:href="#aZ"/><use transform="matrix(0.030864197530864196,0,0,0.030864197530864196,27.716049382716047,0)" xlink:href="#bh"/></g><g id="aT"><use transform="matrix(0.030864197530864196,0,0,0.030864197530864196,0,0)" xlink:href="#bg"/><use transform="matrix(0.030864197530864196,0,0,0.030864197530864196,2.4382716049382713,0)" xlink:href="#aV"/><use transform="matrix(0.030864197530864196,0,0,0.030864197530864196,4.876543209876543,0)" xlink:href="#bh"/><use transform="matrix(0.030864197530864196,0,0,0.030864197530864196,10.432098765432098,0)" xlink:href="#bi"/></g></defs></g></svg>